<?xml version="1.0" encoding="utf-8" standalone="no"?>
<!DOCTYPE svg PUBLIC "-//W3C//DTD SVG 1.1//EN"
  "http://www.w3.org/Graphics/SVG/1.1/DTD/svg11.dtd">
<svg xmlns:xlink="http://www.w3.org/1999/xlink" width="969.787812pt" height="280.11075pt" viewBox="0 0 969.787812 280.11075" xmlns="http://www.w3.org/2000/svg" version="1.1">
 <metadata>
  <rdf:RDF xmlns:dc="http://purl.org/dc/elements/1.1/" xmlns:cc="http://creativecommons.org/ns#" xmlns:rdf="http://www.w3.org/1999/02/22-rdf-syntax-ns#">
   <cc:Work>
    <dc:type rdf:resource="http://purl.org/dc/dcmitype/StillImage"/>
    <dc:date>2026-09-22T20:37:47.312110</dc:date>
    <dc:format>image/svg+xml</dc:format>
    <dc:creator>
     <cc:Agent>
      <dc:title>Matplotlib v3.11.2, https://matplotlib.org/</dc:title>
     </cc:Agent>
    </dc:creator>
   </cc:Work>
  </rdf:RDF>
 </metadata>
 <defs>
  <style type="text/css">*{stroke-linejoin: round; stroke-linecap: butt}</style>
 </defs>
 <g id="figure_1">
  <g id="patch_1">
   <path d="M 0 280.11075 
L 969.787812 280.11075 
L 969.787812 0 
L 0 0 
z
" style="fill: #ffffff"/>
  </g>
  <g id="axes_1">
   <g id="patch_2">
    <path d="M 118.200391 245.910125 
L 368.908083 245.910125 
L 368.908083 64.154227 
L 118.200391 64.154227 
z
" style="fill: #ffffff"/>
   </g>
   <g id="matplotlib.axis_1">
    <g id="xtick_1">
     <g id="line2d_1">
      <defs>
       <path id="me29d2a052c" d="M 0 0 
L 0 3.5 
" style="stroke: #000000; stroke-width: 0.8"/>
      </defs>
      <g>
       <use xlink:href="#me29d2a052c" x="124.845103" y="245.910125" style="stroke: #000000; stroke-width: 0.8"/>
      </g>
     </g>
     <g id="text_1">
      <!-- −0.002 -->
      <g transform="translate(110.041978 258.98825) scale(0.08 -0.08)">
       <defs>
        <path id="DejaVuSans-c9c" d="M 678 2272 
L 4684 2272 
L 4684 1741 
L 678 1741 
L 678 2272 
z
" transform="scale(0.015625)"/>
        <path id="DejaVuSans-13" d="M 2034 4250 
Q 1547 4250 1301 3770 
Q 1056 3291 1056 2328 
Q 1056 1369 1301 889 
Q 1547 409 2034 409 
Q 2525 409 2770 889 
Q 3016 1369 3016 2328 
Q 3016 3291 2770 3770 
Q 2525 4250 2034 4250 
z
M 2034 4750 
Q 2819 4750 3233 4129 
Q 3647 3509 3647 2328 
Q 3647 1150 3233 529 
Q 2819 -91 2034 -91 
Q 1250 -91 836 529 
Q 422 1150 422 2328 
Q 422 3509 836 4129 
Q 1250 4750 2034 4750 
z
" transform="scale(0.015625)"/>
        <path id="DejaVuSans-11" d="M 684 794 
L 1344 794 
L 1344 0 
L 684 0 
L 684 794 
z
" transform="scale(0.015625)"/>
        <path id="DejaVuSans-15" d="M 1228 531 
L 3431 531 
L 3431 0 
L 469 0 
L 469 531 
Q 828 903 1448 1529 
Q 2069 2156 2228 2338 
Q 2531 2678 2651 2914 
Q 2772 3150 2772 3378 
Q 2772 3750 2511 3984 
Q 2250 4219 1831 4219 
Q 1534 4219 1204 4116 
Q 875 4013 500 3803 
L 500 4441 
Q 881 4594 1212 4672 
Q 1544 4750 1819 4750 
Q 2544 4750 2975 4387 
Q 3406 4025 3406 3419 
Q 3406 3131 3298 2873 
Q 3191 2616 2906 2266 
Q 2828 2175 2409 1742 
Q 1991 1309 1228 531 
z
" transform="scale(0.015625)"/>
       </defs>
       <use xlink:href="#DejaVuSans-c9c"/>
       <use xlink:href="#DejaVuSans-13" transform="translate(83.796875 0)"/>
       <use xlink:href="#DejaVuSans-11" transform="translate(147.421875 0)"/>
       <use xlink:href="#DejaVuSans-13" transform="translate(179.203125 0)"/>
       <use xlink:href="#DejaVuSans-13" transform="translate(242.828125 0)"/>
       <use xlink:href="#DejaVuSans-15" transform="translate(306.453125 0)"/>
      </g>
     </g>
    </g>
    <g id="xtick_2">
     <g id="line2d_2">
      <g>
       <use xlink:href="#me29d2a052c" x="155.598112" y="245.910125" style="stroke: #000000; stroke-width: 0.8"/>
      </g>
     </g>
     <g id="text_2">
      <!-- 0.000 -->
      <g transform="translate(144.146862 258.98825) scale(0.08 -0.08)">
       <use xlink:href="#DejaVuSans-13"/>
       <use xlink:href="#DejaVuSans-11" transform="translate(63.625 0)"/>
       <use xlink:href="#DejaVuSans-13" transform="translate(95.40625 0)"/>
       <use xlink:href="#DejaVuSans-13" transform="translate(159.03125 0)"/>
       <use xlink:href="#DejaVuSans-13" transform="translate(222.65625 0)"/>
      </g>
     </g>
    </g>
    <g id="xtick_3">
     <g id="line2d_3">
      <g>
       <use xlink:href="#me29d2a052c" x="186.351122" y="245.910125" style="stroke: #000000; stroke-width: 0.8"/>
      </g>
     </g>
     <g id="text_3">
      <!-- 0.002 -->
      <g transform="translate(174.899872 258.98825) scale(0.08 -0.08)">
       <use xlink:href="#DejaVuSans-13"/>
       <use xlink:href="#DejaVuSans-11" transform="translate(63.625 0)"/>
       <use xlink:href="#DejaVuSans-13" transform="translate(95.40625 0)"/>
       <use xlink:href="#DejaVuSans-13" transform="translate(159.03125 0)"/>
       <use xlink:href="#DejaVuSans-15" transform="translate(222.65625 0)"/>
      </g>
     </g>
    </g>
    <g id="xtick_4">
     <g id="line2d_4">
      <g>
       <use xlink:href="#me29d2a052c" x="217.104132" y="245.910125" style="stroke: #000000; stroke-width: 0.8"/>
      </g>
     </g>
     <g id="text_4">
      <!-- 0.004 -->
      <g transform="translate(205.652882 258.98825) scale(0.08 -0.08)">
       <defs>
        <path id="DejaVuSans-17" d="M 2419 4116 
L 825 1625 
L 2419 1625 
L 2419 4116 
z
M 2253 4666 
L 3047 4666 
L 3047 1625 
L 3713 1625 
L 3713 1100 
L 3047 1100 
L 3047 0 
L 2419 0 
L 2419 1100 
L 313 1100 
L 313 1709 
L 2253 4666 
z
" transform="scale(0.015625)"/>
       </defs>
       <use xlink:href="#DejaVuSans-13"/>
       <use xlink:href="#DejaVuSans-11" transform="translate(63.625 0)"/>
       <use xlink:href="#DejaVuSans-13" transform="translate(95.40625 0)"/>
       <use xlink:href="#DejaVuSans-13" transform="translate(159.03125 0)"/>
       <use xlink:href="#DejaVuSans-17" transform="translate(222.65625 0)"/>
      </g>
     </g>
    </g>
    <g id="xtick_5">
     <g id="line2d_5">
      <g>
       <use xlink:href="#me29d2a052c" x="247.857142" y="245.910125" style="stroke: #000000; stroke-width: 0.8"/>
      </g>
     </g>
     <g id="text_5">
      <!-- 0.006 -->
      <g transform="translate(236.405892 258.98825) scale(0.08 -0.08)">
       <defs>
        <path id="DejaVuSans-19" d="M 2113 2584 
Q 1688 2584 1439 2293 
Q 1191 2003 1191 1497 
Q 1191 994 1439 701 
Q 1688 409 2113 409 
Q 2538 409 2786 701 
Q 3034 994 3034 1497 
Q 3034 2003 2786 2293 
Q 2538 2584 2113 2584 
z
M 3366 4563 
L 3366 3988 
Q 3128 4100 2886 4159 
Q 2644 4219 2406 4219 
Q 1781 4219 1451 3797 
Q 1122 3375 1075 2522 
Q 1259 2794 1537 2939 
Q 1816 3084 2150 3084 
Q 2853 3084 3261 2657 
Q 3669 2231 3669 1497 
Q 3669 778 3244 343 
Q 2819 -91 2113 -91 
Q 1303 -91 875 529 
Q 447 1150 447 2328 
Q 447 3434 972 4092 
Q 1497 4750 2381 4750 
Q 2619 4750 2861 4703 
Q 3103 4656 3366 4563 
z
" transform="scale(0.015625)"/>
       </defs>
       <use xlink:href="#DejaVuSans-13"/>
       <use xlink:href="#DejaVuSans-11" transform="translate(63.625 0)"/>
       <use xlink:href="#DejaVuSans-13" transform="translate(95.40625 0)"/>
       <use xlink:href="#DejaVuSans-13" transform="translate(159.03125 0)"/>
       <use xlink:href="#DejaVuSans-19" transform="translate(222.65625 0)"/>
      </g>
     </g>
    </g>
    <g id="xtick_6">
     <g id="line2d_6">
      <g>
       <use xlink:href="#me29d2a052c" x="278.610152" y="245.910125" style="stroke: #000000; stroke-width: 0.8"/>
      </g>
     </g>
     <g id="text_6">
      <!-- 0.008 -->
      <g transform="translate(267.158902 258.98825) scale(0.08 -0.08)">
       <defs>
        <path id="DejaVuSans-1b" d="M 2034 2216 
Q 1584 2216 1326 1975 
Q 1069 1734 1069 1313 
Q 1069 891 1326 650 
Q 1584 409 2034 409 
Q 2484 409 2743 651 
Q 3003 894 3003 1313 
Q 3003 1734 2745 1975 
Q 2488 2216 2034 2216 
z
M 1403 2484 
Q 997 2584 770 2862 
Q 544 3141 544 3541 
Q 544 4100 942 4425 
Q 1341 4750 2034 4750 
Q 2731 4750 3128 4425 
Q 3525 4100 3525 3541 
Q 3525 3141 3298 2862 
Q 3072 2584 2669 2484 
Q 3125 2378 3379 2068 
Q 3634 1759 3634 1313 
Q 3634 634 3220 271 
Q 2806 -91 2034 -91 
Q 1263 -91 848 271 
Q 434 634 434 1313 
Q 434 1759 690 2068 
Q 947 2378 1403 2484 
z
M 1172 3481 
Q 1172 3119 1398 2916 
Q 1625 2713 2034 2713 
Q 2441 2713 2670 2916 
Q 2900 3119 2900 3481 
Q 2900 3844 2670 4047 
Q 2441 4250 2034 4250 
Q 1625 4250 1398 4047 
Q 1172 3844 1172 3481 
z
" transform="scale(0.015625)"/>
       </defs>
       <use xlink:href="#DejaVuSans-13"/>
       <use xlink:href="#DejaVuSans-11" transform="translate(63.625 0)"/>
       <use xlink:href="#DejaVuSans-13" transform="translate(95.40625 0)"/>
       <use xlink:href="#DejaVuSans-13" transform="translate(159.03125 0)"/>
       <use xlink:href="#DejaVuSans-1b" transform="translate(222.65625 0)"/>
      </g>
     </g>
    </g>
    <g id="xtick_7">
     <g id="line2d_7">
      <g>
       <use xlink:href="#me29d2a052c" x="309.363162" y="245.910125" style="stroke: #000000; stroke-width: 0.8"/>
      </g>
     </g>
     <g id="text_7">
      <!-- 0.010 -->
      <g transform="translate(297.911912 258.98825) scale(0.08 -0.08)">
       <defs>
        <path id="DejaVuSans-14" d="M 794 531 
L 1825 531 
L 1825 4091 
L 703 3866 
L 703 4441 
L 1819 4666 
L 2450 4666 
L 2450 531 
L 3481 531 
L 3481 0 
L 794 0 
L 794 531 
z
" transform="scale(0.015625)"/>
       </defs>
       <use xlink:href="#DejaVuSans-13"/>
       <use xlink:href="#DejaVuSans-11" transform="translate(63.625 0)"/>
       <use xlink:href="#DejaVuSans-13" transform="translate(95.40625 0)"/>
       <use xlink:href="#DejaVuSans-14" transform="translate(159.03125 0)"/>
       <use xlink:href="#DejaVuSans-13" transform="translate(222.65625 0)"/>
      </g>
     </g>
    </g>
    <g id="xtick_8">
     <g id="line2d_8">
      <g>
       <use xlink:href="#me29d2a052c" x="340.116172" y="245.910125" style="stroke: #000000; stroke-width: 0.8"/>
      </g>
     </g>
     <g id="text_8">
      <!-- 0.012 -->
      <g transform="translate(328.664922 258.98825) scale(0.08 -0.08)">
       <use xlink:href="#DejaVuSans-13"/>
       <use xlink:href="#DejaVuSans-11" transform="translate(63.625 0)"/>
       <use xlink:href="#DejaVuSans-13" transform="translate(95.40625 0)"/>
       <use xlink:href="#DejaVuSans-14" transform="translate(159.03125 0)"/>
       <use xlink:href="#DejaVuSans-15" transform="translate(222.65625 0)"/>
      </g>
     </g>
    </g>
    <g id="text_9">
     <!-- Delta multiclass AUC -->
     <g transform="translate(201.731737 270.988875) scale(0.08 -0.08)">
      <defs>
       <path id="DejaVuSans-27" d="M 1259 4147 
L 1259 519 
L 2022 519 
Q 2988 519 3436 956 
Q 3884 1394 3884 2338 
Q 3884 3275 3436 3711 
Q 2988 4147 2022 4147 
L 1259 4147 
z
M 628 4666 
L 1925 4666 
Q 3281 4666 3915 4102 
Q 4550 3538 4550 2338 
Q 4550 1131 3912 565 
Q 3275 0 1925 0 
L 628 0 
L 628 4666 
z
" transform="scale(0.015625)"/>
       <path id="DejaVuSans-48" d="M 3597 1894 
L 3597 1613 
L 953 1613 
Q 991 1019 1311 708 
Q 1631 397 2203 397 
Q 2534 397 2845 478 
Q 3156 559 3463 722 
L 3463 178 
Q 3153 47 2828 -22 
Q 2503 -91 2169 -91 
Q 1331 -91 842 396 
Q 353 884 353 1716 
Q 353 2575 817 3079 
Q 1281 3584 2069 3584 
Q 2775 3584 3186 3129 
Q 3597 2675 3597 1894 
z
M 3022 2063 
Q 3016 2534 2758 2815 
Q 2500 3097 2075 3097 
Q 1594 3097 1305 2825 
Q 1016 2553 972 2059 
L 3022 2063 
z
" transform="scale(0.015625)"/>
       <path id="DejaVuSans-4f" d="M 603 4863 
L 1178 4863 
L 1178 0 
L 603 0 
L 603 4863 
z
" transform="scale(0.015625)"/>
       <path id="DejaVuSans-57" d="M 1172 4494 
L 1172 3500 
L 2356 3500 
L 2356 3053 
L 1172 3053 
L 1172 1153 
Q 1172 725 1289 603 
Q 1406 481 1766 481 
L 2356 481 
L 2356 0 
L 1766 0 
Q 1100 0 847 248 
Q 594 497 594 1153 
L 594 3053 
L 172 3053 
L 172 3500 
L 594 3500 
L 594 4494 
L 1172 4494 
z
" transform="scale(0.015625)"/>
       <path id="DejaVuSans-44" d="M 2194 1759 
Q 1497 1759 1228 1600 
Q 959 1441 959 1056 
Q 959 750 1161 570 
Q 1363 391 1709 391 
Q 2188 391 2477 730 
Q 2766 1069 2766 1631 
L 2766 1759 
L 2194 1759 
z
M 3341 1997 
L 3341 0 
L 2766 0 
L 2766 531 
Q 2569 213 2275 61 
Q 1981 -91 1556 -91 
Q 1019 -91 701 211 
Q 384 513 384 1019 
Q 384 1609 779 1909 
Q 1175 2209 1959 2209 
L 2766 2209 
L 2766 2266 
Q 2766 2663 2505 2880 
Q 2244 3097 1772 3097 
Q 1472 3097 1187 3025 
Q 903 2953 641 2809 
L 641 3341 
Q 956 3463 1253 3523 
Q 1550 3584 1831 3584 
Q 2591 3584 2966 3190 
Q 3341 2797 3341 1997 
z
" transform="scale(0.015625)"/>
       <path id="DejaVuSans-3" transform="scale(0.015625)"/>
       <path id="DejaVuSans-50" d="M 3328 2828 
Q 3544 3216 3844 3400 
Q 4144 3584 4550 3584 
Q 5097 3584 5394 3201 
Q 5691 2819 5691 2113 
L 5691 0 
L 5113 0 
L 5113 2094 
Q 5113 2597 4934 2840 
Q 4756 3084 4391 3084 
Q 3944 3084 3684 2787 
Q 3425 2491 3425 1978 
L 3425 0 
L 2847 0 
L 2847 2094 
Q 2847 2600 2669 2842 
Q 2491 3084 2119 3084 
Q 1678 3084 1418 2786 
Q 1159 2488 1159 1978 
L 1159 0 
L 581 0 
L 581 3500 
L 1159 3500 
L 1159 2956 
Q 1356 3278 1631 3431 
Q 1906 3584 2284 3584 
Q 2666 3584 2933 3390 
Q 3200 3197 3328 2828 
z
" transform="scale(0.015625)"/>
       <path id="DejaVuSans-58" d="M 544 1381 
L 544 3500 
L 1119 3500 
L 1119 1403 
Q 1119 906 1312 657 
Q 1506 409 1894 409 
Q 2359 409 2629 706 
Q 2900 1003 2900 1516 
L 2900 3500 
L 3475 3500 
L 3475 0 
L 2900 0 
L 2900 538 
Q 2691 219 2414 64 
Q 2138 -91 1772 -91 
Q 1169 -91 856 284 
Q 544 659 544 1381 
z
M 1991 3584 
L 1991 3584 
z
" transform="scale(0.015625)"/>
       <path id="DejaVuSans-4c" d="M 603 3500 
L 1178 3500 
L 1178 0 
L 603 0 
L 603 3500 
z
M 603 4863 
L 1178 4863 
L 1178 4134 
L 603 4134 
L 603 4863 
z
" transform="scale(0.015625)"/>
       <path id="DejaVuSans-46" d="M 3122 3366 
L 3122 2828 
Q 2878 2963 2633 3030 
Q 2388 3097 2138 3097 
Q 1578 3097 1268 2742 
Q 959 2388 959 1747 
Q 959 1106 1268 751 
Q 1578 397 2138 397 
Q 2388 397 2633 464 
Q 2878 531 3122 666 
L 3122 134 
Q 2881 22 2623 -34 
Q 2366 -91 2075 -91 
Q 1284 -91 818 406 
Q 353 903 353 1747 
Q 353 2603 823 3093 
Q 1294 3584 2113 3584 
Q 2378 3584 2631 3529 
Q 2884 3475 3122 3366 
z
" transform="scale(0.015625)"/>
       <path id="DejaVuSans-56" d="M 2834 3397 
L 2834 2853 
Q 2591 2978 2328 3040 
Q 2066 3103 1784 3103 
Q 1356 3103 1142 2972 
Q 928 2841 928 2578 
Q 928 2378 1081 2264 
Q 1234 2150 1697 2047 
L 1894 2003 
Q 2506 1872 2764 1633 
Q 3022 1394 3022 966 
Q 3022 478 2636 193 
Q 2250 -91 1575 -91 
Q 1294 -91 989 -36 
Q 684 19 347 128 
L 347 722 
Q 666 556 975 473 
Q 1284 391 1588 391 
Q 1994 391 2212 530 
Q 2431 669 2431 922 
Q 2431 1156 2273 1281 
Q 2116 1406 1581 1522 
L 1381 1569 
Q 847 1681 609 1914 
Q 372 2147 372 2553 
Q 372 3047 722 3315 
Q 1072 3584 1716 3584 
Q 2034 3584 2315 3537 
Q 2597 3491 2834 3397 
z
" transform="scale(0.015625)"/>
       <path id="DejaVuSans-24" d="M 2188 4044 
L 1331 1722 
L 3047 1722 
L 2188 4044 
z
M 1831 4666 
L 2547 4666 
L 4325 0 
L 3669 0 
L 3244 1197 
L 1141 1197 
L 716 0 
L 50 0 
L 1831 4666 
z
" transform="scale(0.015625)"/>
       <path id="DejaVuSans-38" d="M 556 4666 
L 1191 4666 
L 1191 1831 
Q 1191 1081 1462 751 
Q 1734 422 2344 422 
Q 2950 422 3222 751 
Q 3494 1081 3494 1831 
L 3494 4666 
L 4128 4666 
L 4128 1753 
Q 4128 841 3676 375 
Q 3225 -91 2344 -91 
Q 1459 -91 1007 375 
Q 556 841 556 1753 
L 556 4666 
z
" transform="scale(0.015625)"/>
       <path id="DejaVuSans-26" d="M 4122 4306 
L 4122 3641 
Q 3803 3938 3442 4084 
Q 3081 4231 2675 4231 
Q 1875 4231 1450 3742 
Q 1025 3253 1025 2328 
Q 1025 1406 1450 917 
Q 1875 428 2675 428 
Q 3081 428 3442 575 
Q 3803 722 4122 1019 
L 4122 359 
Q 3791 134 3420 21 
Q 3050 -91 2638 -91 
Q 1578 -91 968 557 
Q 359 1206 359 2328 
Q 359 3453 968 4101 
Q 1578 4750 2638 4750 
Q 3056 4750 3426 4639 
Q 3797 4528 4122 4306 
z
" transform="scale(0.015625)"/>
      </defs>
      <use xlink:href="#DejaVuSans-27"/>
      <use xlink:href="#DejaVuSans-48" transform="translate(77 0)"/>
      <use xlink:href="#DejaVuSans-4f" transform="translate(138.53125 0)"/>
      <use xlink:href="#DejaVuSans-57" transform="translate(166.3125 0)"/>
      <use xlink:href="#DejaVuSans-44" transform="translate(205.515625 0)"/>
      <use xlink:href="#DejaVuSans-3" transform="translate(266.796875 0)"/>
      <use xlink:href="#DejaVuSans-50" transform="translate(298.578125 0)"/>
      <use xlink:href="#DejaVuSans-58" transform="translate(395.984375 0)"/>
      <use xlink:href="#DejaVuSans-4f" transform="translate(459.359375 0)"/>
      <use xlink:href="#DejaVuSans-57" transform="translate(487.140625 0)"/>
      <use xlink:href="#DejaVuSans-4c" transform="translate(526.34375 0)"/>
      <use xlink:href="#DejaVuSans-46" transform="translate(554.125 0)"/>
      <use xlink:href="#DejaVuSans-4f" transform="translate(609.109375 0)"/>
      <use xlink:href="#DejaVuSans-44" transform="translate(636.890625 0)"/>
      <use xlink:href="#DejaVuSans-56" transform="translate(698.171875 0)"/>
      <use xlink:href="#DejaVuSans-56" transform="translate(750.265625 0)"/>
      <use xlink:href="#DejaVuSans-3" transform="translate(802.359375 0)"/>
      <use xlink:href="#DejaVuSans-24" transform="translate(834.140625 0)"/>
      <use xlink:href="#DejaVuSans-38" transform="translate(902.546875 0)"/>
      <use xlink:href="#DejaVuSans-26" transform="translate(975.734375 0)"/>
     </g>
    </g>
   </g>
   <g id="matplotlib.axis_2">
    <g id="ytick_1">
     <g id="line2d_9">
      <defs>
       <path id="mff97824a63" d="M 0 0 
L -3.5 0 
" style="stroke: #000000; stroke-width: 0.8"/>
      </defs>
      <g>
       <use xlink:href="#mff97824a63" x="118.200391" y="72.415858" style="stroke: #000000; stroke-width: 0.8"/>
      </g>
     </g>
     <g id="text_10">
      <!-- C - B embedding -->
      <g transform="translate(48.54375 71.139613) scale(0.075 -0.075)">
       <defs>
        <path id="DejaVuSans-10" d="M 313 2009 
L 1997 2009 
L 1997 1497 
L 313 1497 
L 313 2009 
z
" transform="scale(0.015625)"/>
        <path id="DejaVuSans-25" d="M 1259 2228 
L 1259 519 
L 2272 519 
Q 2781 519 3026 730 
Q 3272 941 3272 1375 
Q 3272 1813 3026 2020 
Q 2781 2228 2272 2228 
L 1259 2228 
z
M 1259 4147 
L 1259 2741 
L 2194 2741 
Q 2656 2741 2882 2914 
Q 3109 3088 3109 3444 
Q 3109 3797 2882 3972 
Q 2656 4147 2194 4147 
L 1259 4147 
z
M 628 4666 
L 2241 4666 
Q 2963 4666 3353 4366 
Q 3744 4066 3744 3513 
Q 3744 3084 3544 2831 
Q 3344 2578 2956 2516 
Q 3422 2416 3680 2098 
Q 3938 1781 3938 1306 
Q 3938 681 3513 340 
Q 3088 0 2303 0 
L 628 0 
L 628 4666 
z
" transform="scale(0.015625)"/>
        <path id="DejaVuSans-45" d="M 3116 1747 
Q 3116 2381 2855 2742 
Q 2594 3103 2138 3103 
Q 1681 3103 1420 2742 
Q 1159 2381 1159 1747 
Q 1159 1113 1420 752 
Q 1681 391 2138 391 
Q 2594 391 2855 752 
Q 3116 1113 3116 1747 
z
M 1159 2969 
Q 1341 3281 1617 3432 
Q 1894 3584 2278 3584 
Q 2916 3584 3314 3078 
Q 3713 2572 3713 1747 
Q 3713 922 3314 415 
Q 2916 -91 2278 -91 
Q 1894 -91 1617 61 
Q 1341 213 1159 525 
L 1159 0 
L 581 0 
L 581 4863 
L 1159 4863 
L 1159 2969 
z
" transform="scale(0.015625)"/>
        <path id="DejaVuSans-47" d="M 2906 2969 
L 2906 4863 
L 3481 4863 
L 3481 0 
L 2906 0 
L 2906 525 
Q 2725 213 2448 61 
Q 2172 -91 1784 -91 
Q 1150 -91 751 415 
Q 353 922 353 1747 
Q 353 2572 751 3078 
Q 1150 3584 1784 3584 
Q 2172 3584 2448 3432 
Q 2725 3281 2906 2969 
z
M 947 1747 
Q 947 1113 1208 752 
Q 1469 391 1925 391 
Q 2381 391 2643 752 
Q 2906 1113 2906 1747 
Q 2906 2381 2643 2742 
Q 2381 3103 1925 3103 
Q 1469 3103 1208 2742 
Q 947 2381 947 1747 
z
" transform="scale(0.015625)"/>
        <path id="DejaVuSans-51" d="M 3513 2113 
L 3513 0 
L 2938 0 
L 2938 2094 
Q 2938 2591 2744 2837 
Q 2550 3084 2163 3084 
Q 1697 3084 1428 2787 
Q 1159 2491 1159 1978 
L 1159 0 
L 581 0 
L 581 3500 
L 1159 3500 
L 1159 2956 
Q 1366 3272 1645 3428 
Q 1925 3584 2291 3584 
Q 2894 3584 3203 3211 
Q 3513 2838 3513 2113 
z
" transform="scale(0.015625)"/>
        <path id="DejaVuSans-4a" d="M 2906 1791 
Q 2906 2416 2648 2759 
Q 2391 3103 1925 3103 
Q 1463 3103 1205 2759 
Q 947 2416 947 1791 
Q 947 1169 1205 825 
Q 1463 481 1925 481 
Q 2391 481 2648 825 
Q 2906 1169 2906 1791 
z
M 3481 434 
Q 3481 -459 3084 -895 
Q 2688 -1331 1869 -1331 
Q 1566 -1331 1297 -1286 
Q 1028 -1241 775 -1147 
L 775 -588 
Q 1028 -725 1275 -790 
Q 1522 -856 1778 -856 
Q 2344 -856 2625 -561 
Q 2906 -266 2906 331 
L 2906 616 
Q 2728 306 2450 153 
Q 2172 0 1784 0 
Q 1141 0 747 490 
Q 353 981 353 1791 
Q 353 2603 747 3093 
Q 1141 3584 1784 3584 
Q 2172 3584 2450 3431 
Q 2728 3278 2906 2969 
L 2906 3500 
L 3481 3500 
L 3481 434 
z
" transform="scale(0.015625)"/>
       </defs>
       <use xlink:href="#DejaVuSans-26"/>
       <use xlink:href="#DejaVuSans-3" transform="translate(69.828125 0)"/>
       <use xlink:href="#DejaVuSans-10" transform="translate(101.609375 0)"/>
       <use xlink:href="#DejaVuSans-3" transform="translate(137.6875 0)"/>
       <use xlink:href="#DejaVuSans-25" transform="translate(169.46875 0)"/>
       <use xlink:href="#DejaVuSans-3" transform="translate(238.078125 0)"/>
       <use xlink:href="#DejaVuSans-48" transform="translate(269.859375 0)"/>
       <use xlink:href="#DejaVuSans-50" transform="translate(331.390625 0)"/>
       <use xlink:href="#DejaVuSans-45" transform="translate(428.796875 0)"/>
       <use xlink:href="#DejaVuSans-48" transform="translate(492.28125 0)"/>
       <use xlink:href="#DejaVuSans-47" transform="translate(553.8125 0)"/>
       <use xlink:href="#DejaVuSans-47" transform="translate(617.296875 0)"/>
       <use xlink:href="#DejaVuSans-4c" transform="translate(680.78125 0)"/>
       <use xlink:href="#DejaVuSans-51" transform="translate(708.5625 0)"/>
       <use xlink:href="#DejaVuSans-4a" transform="translate(771.9375 0)"/>
      </g>
      <!-- + 5 scalar biomarkers -->
      <g transform="translate(28.503516 80.141664) scale(0.075 -0.075)">
       <defs>
        <path id="DejaVuSans-e" d="M 2944 4013 
L 2944 2272 
L 4684 2272 
L 4684 1741 
L 2944 1741 
L 2944 0 
L 2419 0 
L 2419 1741 
L 678 1741 
L 678 2272 
L 2419 2272 
L 2419 4013 
L 2944 4013 
z
" transform="scale(0.015625)"/>
        <path id="DejaVuSans-18" d="M 691 4666 
L 3169 4666 
L 3169 4134 
L 1269 4134 
L 1269 2991 
Q 1406 3038 1543 3061 
Q 1681 3084 1819 3084 
Q 2600 3084 3056 2656 
Q 3513 2228 3513 1497 
Q 3513 744 3044 326 
Q 2575 -91 1722 -91 
Q 1428 -91 1123 -41 
Q 819 9 494 109 
L 494 744 
Q 775 591 1075 516 
Q 1375 441 1709 441 
Q 2250 441 2565 725 
Q 2881 1009 2881 1497 
Q 2881 1984 2565 2268 
Q 2250 2553 1709 2553 
Q 1456 2553 1204 2497 
Q 953 2441 691 2322 
L 691 4666 
z
" transform="scale(0.015625)"/>
        <path id="DejaVuSans-55" d="M 2631 2963 
Q 2534 3019 2420 3045 
Q 2306 3072 2169 3072 
Q 1681 3072 1420 2755 
Q 1159 2438 1159 1844 
L 1159 0 
L 581 0 
L 581 3500 
L 1159 3500 
L 1159 2956 
Q 1341 3275 1631 3429 
Q 1922 3584 2338 3584 
Q 2397 3584 2469 3576 
Q 2541 3569 2628 3553 
L 2631 2963 
z
" transform="scale(0.015625)"/>
        <path id="DejaVuSans-52" d="M 1959 3097 
Q 1497 3097 1228 2736 
Q 959 2375 959 1747 
Q 959 1119 1226 758 
Q 1494 397 1959 397 
Q 2419 397 2687 759 
Q 2956 1122 2956 1747 
Q 2956 2369 2687 2733 
Q 2419 3097 1959 3097 
z
M 1959 3584 
Q 2709 3584 3137 3096 
Q 3566 2609 3566 1747 
Q 3566 888 3137 398 
Q 2709 -91 1959 -91 
Q 1206 -91 779 398 
Q 353 888 353 1747 
Q 353 2609 779 3096 
Q 1206 3584 1959 3584 
z
" transform="scale(0.015625)"/>
        <path id="DejaVuSans-4e" d="M 581 4863 
L 1159 4863 
L 1159 1991 
L 2875 3500 
L 3609 3500 
L 1753 1863 
L 3688 0 
L 2938 0 
L 1159 1709 
L 1159 0 
L 581 0 
L 581 4863 
z
" transform="scale(0.015625)"/>
       </defs>
       <use xlink:href="#DejaVuSans-e"/>
       <use xlink:href="#DejaVuSans-3" transform="translate(83.796875 0)"/>
       <use xlink:href="#DejaVuSans-18" transform="translate(115.578125 0)"/>
       <use xlink:href="#DejaVuSans-3" transform="translate(179.203125 0)"/>
       <use xlink:href="#DejaVuSans-56" transform="translate(210.984375 0)"/>
       <use xlink:href="#DejaVuSans-46" transform="translate(263.078125 0)"/>
       <use xlink:href="#DejaVuSans-44" transform="translate(318.0625 0)"/>
       <use xlink:href="#DejaVuSans-4f" transform="translate(379.34375 0)"/>
       <use xlink:href="#DejaVuSans-44" transform="translate(407.125 0)"/>
       <use xlink:href="#DejaVuSans-55" transform="translate(468.40625 0)"/>
       <use xlink:href="#DejaVuSans-3" transform="translate(509.515625 0)"/>
       <use xlink:href="#DejaVuSans-45" transform="translate(541.296875 0)"/>
       <use xlink:href="#DejaVuSans-4c" transform="translate(604.78125 0)"/>
       <use xlink:href="#DejaVuSans-52" transform="translate(632.5625 0)"/>
       <use xlink:href="#DejaVuSans-50" transform="translate(693.75 0)"/>
       <use xlink:href="#DejaVuSans-44" transform="translate(791.15625 0)"/>
       <use xlink:href="#DejaVuSans-55" transform="translate(852.4375 0)"/>
       <use xlink:href="#DejaVuSans-4e" transform="translate(893.546875 0)"/>
       <use xlink:href="#DejaVuSans-48" transform="translate(947.890625 0)"/>
       <use xlink:href="#DejaVuSans-55" transform="translate(1009.421875 0)"/>
       <use xlink:href="#DejaVuSans-56" transform="translate(1050.53125 0)"/>
      </g>
     </g>
    </g>
    <g id="ytick_2">
     <g id="line2d_10">
      <g>
       <use xlink:href="#mff97824a63" x="118.200391" y="155.032176" style="stroke: #000000; stroke-width: 0.8"/>
      </g>
     </g>
     <g id="text_11">
      <!-- E - B embedding -->
      <g transform="translate(49.041797 153.755931) scale(0.075 -0.075)">
       <defs>
        <path id="DejaVuSans-28" d="M 628 4666 
L 3578 4666 
L 3578 4134 
L 1259 4134 
L 1259 2753 
L 3481 2753 
L 3481 2222 
L 1259 2222 
L 1259 531 
L 3634 531 
L 3634 0 
L 628 0 
L 628 4666 
z
" transform="scale(0.015625)"/>
       </defs>
       <use xlink:href="#DejaVuSans-28"/>
       <use xlink:href="#DejaVuSans-3" transform="translate(63.1875 0)"/>
       <use xlink:href="#DejaVuSans-10" transform="translate(94.96875 0)"/>
       <use xlink:href="#DejaVuSans-3" transform="translate(131.046875 0)"/>
       <use xlink:href="#DejaVuSans-25" transform="translate(162.828125 0)"/>
       <use xlink:href="#DejaVuSans-3" transform="translate(231.4375 0)"/>
       <use xlink:href="#DejaVuSans-48" transform="translate(263.21875 0)"/>
       <use xlink:href="#DejaVuSans-50" transform="translate(324.75 0)"/>
       <use xlink:href="#DejaVuSans-45" transform="translate(422.15625 0)"/>
       <use xlink:href="#DejaVuSans-48" transform="translate(485.640625 0)"/>
       <use xlink:href="#DejaVuSans-47" transform="translate(547.171875 0)"/>
       <use xlink:href="#DejaVuSans-47" transform="translate(610.65625 0)"/>
       <use xlink:href="#DejaVuSans-4c" transform="translate(674.140625 0)"/>
       <use xlink:href="#DejaVuSans-51" transform="translate(701.921875 0)"/>
       <use xlink:href="#DejaVuSans-4a" transform="translate(765.296875 0)"/>
      </g>
      <!-- + spatial vessel -->
      <g transform="translate(51.614063 162.757981) scale(0.075 -0.075)">
       <defs>
        <path id="DejaVuSans-53" d="M 1159 525 
L 1159 -1331 
L 581 -1331 
L 581 3500 
L 1159 3500 
L 1159 2969 
Q 1341 3281 1617 3432 
Q 1894 3584 2278 3584 
Q 2916 3584 3314 3078 
Q 3713 2572 3713 1747 
Q 3713 922 3314 415 
Q 2916 -91 2278 -91 
Q 1894 -91 1617 61 
Q 1341 213 1159 525 
z
M 3116 1747 
Q 3116 2381 2855 2742 
Q 2594 3103 2138 3103 
Q 1681 3103 1420 2742 
Q 1159 2381 1159 1747 
Q 1159 1113 1420 752 
Q 1681 391 2138 391 
Q 2594 391 2855 752 
Q 3116 1113 3116 1747 
z
" transform="scale(0.015625)"/>
        <path id="DejaVuSans-59" d="M 191 3500 
L 800 3500 
L 1894 563 
L 2988 3500 
L 3597 3500 
L 2284 0 
L 1503 0 
L 191 3500 
z
" transform="scale(0.015625)"/>
       </defs>
       <use xlink:href="#DejaVuSans-e"/>
       <use xlink:href="#DejaVuSans-3" transform="translate(83.796875 0)"/>
       <use xlink:href="#DejaVuSans-56" transform="translate(115.578125 0)"/>
       <use xlink:href="#DejaVuSans-53" transform="translate(167.671875 0)"/>
       <use xlink:href="#DejaVuSans-44" transform="translate(231.15625 0)"/>
       <use xlink:href="#DejaVuSans-57" transform="translate(292.4375 0)"/>
       <use xlink:href="#DejaVuSans-4c" transform="translate(331.640625 0)"/>
       <use xlink:href="#DejaVuSans-44" transform="translate(359.421875 0)"/>
       <use xlink:href="#DejaVuSans-4f" transform="translate(420.703125 0)"/>
       <use xlink:href="#DejaVuSans-3" transform="translate(448.484375 0)"/>
       <use xlink:href="#DejaVuSans-59" transform="translate(480.265625 0)"/>
       <use xlink:href="#DejaVuSans-48" transform="translate(539.453125 0)"/>
       <use xlink:href="#DejaVuSans-56" transform="translate(600.984375 0)"/>
       <use xlink:href="#DejaVuSans-56" transform="translate(653.078125 0)"/>
       <use xlink:href="#DejaVuSans-48" transform="translate(705.171875 0)"/>
       <use xlink:href="#DejaVuSans-4f" transform="translate(766.703125 0)"/>
      </g>
     </g>
    </g>
    <g id="ytick_3">
     <g id="line2d_11">
      <g>
       <use xlink:href="#mff97824a63" x="118.200391" y="237.648493" style="stroke: #000000; stroke-width: 0.8"/>
      </g>
     </g>
     <g id="text_12">
      <!-- G - E -->
      <g transform="translate(93.176953 236.371955) scale(0.075 -0.075)">
       <defs>
        <path id="DejaVuSans-2a" d="M 3809 666 
L 3809 1919 
L 2778 1919 
L 2778 2438 
L 4434 2438 
L 4434 434 
Q 4069 175 3628 42 
Q 3188 -91 2688 -91 
Q 1594 -91 976 548 
Q 359 1188 359 2328 
Q 359 3472 976 4111 
Q 1594 4750 2688 4750 
Q 3144 4750 3555 4637 
Q 3966 4525 4313 4306 
L 4313 3634 
Q 3963 3931 3569 4081 
Q 3175 4231 2741 4231 
Q 1884 4231 1454 3753 
Q 1025 3275 1025 2328 
Q 1025 1384 1454 906 
Q 1884 428 2741 428 
Q 3075 428 3337 486 
Q 3600 544 3809 666 
z
" transform="scale(0.015625)"/>
       </defs>
       <use xlink:href="#DejaVuSans-2a"/>
       <use xlink:href="#DejaVuSans-3" transform="translate(77.484375 0)"/>
       <use xlink:href="#DejaVuSans-10" transform="translate(109.265625 0)"/>
       <use xlink:href="#DejaVuSans-3" transform="translate(145.34375 0)"/>
       <use xlink:href="#DejaVuSans-28" transform="translate(177.125 0)"/>
      </g>
      <!-- + 5 biomarkers after vessel -->
      <g transform="translate(7.2 245.374006) scale(0.075 -0.075)">
       <defs>
        <path id="DejaVuSans-49" d="M 2375 4863 
L 2375 4384 
L 1825 4384 
Q 1516 4384 1395 4259 
Q 1275 4134 1275 3809 
L 1275 3500 
L 2222 3500 
L 2222 3053 
L 1275 3053 
L 1275 0 
L 697 0 
L 697 3053 
L 147 3053 
L 147 3500 
L 697 3500 
L 697 3744 
Q 697 4328 969 4595 
Q 1241 4863 1831 4863 
L 2375 4863 
z
" transform="scale(0.015625)"/>
       </defs>
       <use xlink:href="#DejaVuSans-e"/>
       <use xlink:href="#DejaVuSans-3" transform="translate(83.796875 0)"/>
       <use xlink:href="#DejaVuSans-18" transform="translate(115.578125 0)"/>
       <use xlink:href="#DejaVuSans-3" transform="translate(179.203125 0)"/>
       <use xlink:href="#DejaVuSans-45" transform="translate(210.984375 0)"/>
       <use xlink:href="#DejaVuSans-4c" transform="translate(274.46875 0)"/>
       <use xlink:href="#DejaVuSans-52" transform="translate(302.25 0)"/>
       <use xlink:href="#DejaVuSans-50" transform="translate(363.4375 0)"/>
       <use xlink:href="#DejaVuSans-44" transform="translate(460.84375 0)"/>
       <use xlink:href="#DejaVuSans-55" transform="translate(522.125 0)"/>
       <use xlink:href="#DejaVuSans-4e" transform="translate(563.234375 0)"/>
       <use xlink:href="#DejaVuSans-48" transform="translate(617.578125 0)"/>
       <use xlink:href="#DejaVuSans-55" transform="translate(679.109375 0)"/>
       <use xlink:href="#DejaVuSans-56" transform="translate(720.21875 0)"/>
       <use xlink:href="#DejaVuSans-3" transform="translate(772.3125 0)"/>
       <use xlink:href="#DejaVuSans-44" transform="translate(804.09375 0)"/>
       <use xlink:href="#DejaVuSans-49" transform="translate(865.375 0)"/>
       <use xlink:href="#DejaVuSans-57" transform="translate(898.828125 0)"/>
       <use xlink:href="#DejaVuSans-48" transform="translate(938.03125 0)"/>
       <use xlink:href="#DejaVuSans-55" transform="translate(999.5625 0)"/>
       <use xlink:href="#DejaVuSans-3" transform="translate(1040.671875 0)"/>
       <use xlink:href="#DejaVuSans-59" transform="translate(1072.453125 0)"/>
       <use xlink:href="#DejaVuSans-48" transform="translate(1131.640625 0)"/>
       <use xlink:href="#DejaVuSans-56" transform="translate(1193.171875 0)"/>
       <use xlink:href="#DejaVuSans-56" transform="translate(1245.265625 0)"/>
       <use xlink:href="#DejaVuSans-48" transform="translate(1297.359375 0)"/>
       <use xlink:href="#DejaVuSans-4f" transform="translate(1358.890625 0)"/>
      </g>
     </g>
    </g>
   </g>
   <g id="line2d_12">
    <path d="M 129.596195 72.415858 
L 215.081077 72.415858 
" clip-path="url(#p456dbad65a)" style="fill: none; stroke: #a6a6a6; stroke-width: 1.4; stroke-linecap: square"/>
   </g>
   <g id="line2d_13">
    <defs>
     <path id="md9d9e81631" d="M 0 3 
C 0.795609 3 1.55874 2.683901 2.12132 2.12132 
C 2.683901 1.55874 3 0.795609 3 0 
C 3 -0.795609 2.683901 -1.55874 2.12132 -2.12132 
C 1.55874 -2.683901 0.795609 -3 0 -3 
C -0.795609 -3 -1.55874 -2.683901 -2.12132 -2.12132 
C -2.683901 -1.55874 -3 -0.795609 -3 0 
C -3 0.795609 -2.683901 1.55874 -2.12132 2.12132 
C -1.55874 2.683901 -0.795609 3 0 3 
z
" style="stroke: #a6a6a6"/>
    </defs>
    <g clip-path="url(#p456dbad65a)">
     <use xlink:href="#md9d9e81631" x="172.281315" y="72.415858" style="fill: #a6a6a6; stroke: #a6a6a6"/>
    </g>
   </g>
   <g id="line2d_14">
    <path d="M 196.030983 155.032176 
L 357.512279 155.032176 
" clip-path="url(#p456dbad65a)" style="fill: none; stroke: #1b1b1b; stroke-width: 1.4; stroke-linecap: square"/>
   </g>
   <g id="line2d_15">
    <defs>
     <path id="mc2520f530e" d="M 0 3 
C 0.795609 3 1.55874 2.683901 2.12132 2.12132 
C 2.683901 1.55874 3 0.795609 3 0 
C 3 -0.795609 2.683901 -1.55874 2.12132 -2.12132 
C 1.55874 -2.683901 0.795609 -3 0 -3 
C -0.795609 -3 -1.55874 -2.683901 -2.12132 -2.12132 
C -2.683901 -1.55874 -3 -0.795609 -3 0 
C -3 0.795609 -2.683901 1.55874 -2.12132 2.12132 
C -1.55874 2.683901 -0.795609 3 0 3 
z
" style="stroke: #1b1b1b"/>
    </defs>
    <g clip-path="url(#p456dbad65a)">
     <use xlink:href="#mc2520f530e" x="277.66022" y="155.032176" style="fill: #1b1b1b; stroke: #1b1b1b"/>
    </g>
   </g>
   <g id="line2d_16">
    <path d="M 151.384204 237.648493 
L 223.204872 237.648493 
" clip-path="url(#p456dbad65a)" style="fill: none; stroke: #a6a6a6; stroke-width: 1.4; stroke-linecap: square"/>
   </g>
   <g id="line2d_17">
    <g clip-path="url(#p456dbad65a)">
     <use xlink:href="#md9d9e81631" x="186.950919" y="237.648493" style="fill: #a6a6a6; stroke: #a6a6a6"/>
    </g>
   </g>
   <g id="line2d_18">
    <path d="M 155.598112 245.910125 
L 155.598112 64.154227 
" clip-path="url(#p456dbad65a)" style="fill: none; stroke-dasharray: 3.33,1.44; stroke-dashoffset: 0; stroke: #333333; stroke-width: 0.9"/>
   </g>
   <g id="patch_3">
    <path d="M 118.200391 245.910125 
L 118.200391 64.154227 
" style="fill: none; stroke: #000000; stroke-width: 0.8; stroke-linejoin: miter; stroke-linecap: square"/>
   </g>
   <g id="patch_4">
    <path d="M 118.200391 245.910125 
L 368.908083 245.910125 
" style="fill: none; stroke: #000000; stroke-width: 0.8; stroke-linejoin: miter; stroke-linecap: square"/>
   </g>
   <g id="text_13">
    <!-- A  Canonical complementarity -->
    <g transform="translate(175.555721 58.154227) scale(0.09 -0.09)">
     <defs>
      <path id="DejaVuSans-5c" d="M 2059 -325 
Q 1816 -950 1584 -1140 
Q 1353 -1331 966 -1331 
L 506 -1331 
L 506 -850 
L 844 -850 
Q 1081 -850 1212 -737 
Q 1344 -625 1503 -206 
L 1606 56 
L 191 3500 
L 800 3500 
L 1894 763 
L 2988 3500 
L 3597 3500 
L 2059 -325 
z
" transform="scale(0.015625)"/>
     </defs>
     <use xlink:href="#DejaVuSans-24"/>
     <use xlink:href="#DejaVuSans-3" transform="translate(68.40625 0)"/>
     <use xlink:href="#DejaVuSans-3" transform="translate(100.1875 0)"/>
     <use xlink:href="#DejaVuSans-26" transform="translate(131.96875 0)"/>
     <use xlink:href="#DejaVuSans-44" transform="translate(201.796875 0)"/>
     <use xlink:href="#DejaVuSans-51" transform="translate(263.078125 0)"/>
     <use xlink:href="#DejaVuSans-52" transform="translate(326.453125 0)"/>
     <use xlink:href="#DejaVuSans-51" transform="translate(387.640625 0)"/>
     <use xlink:href="#DejaVuSans-4c" transform="translate(451.015625 0)"/>
     <use xlink:href="#DejaVuSans-46" transform="translate(478.796875 0)"/>
     <use xlink:href="#DejaVuSans-44" transform="translate(533.78125 0)"/>
     <use xlink:href="#DejaVuSans-4f" transform="translate(595.0625 0)"/>
     <use xlink:href="#DejaVuSans-3" transform="translate(622.84375 0)"/>
     <use xlink:href="#DejaVuSans-46" transform="translate(654.625 0)"/>
     <use xlink:href="#DejaVuSans-52" transform="translate(709.609375 0)"/>
     <use xlink:href="#DejaVuSans-50" transform="translate(770.796875 0)"/>
     <use xlink:href="#DejaVuSans-53" transform="translate(868.203125 0)"/>
     <use xlink:href="#DejaVuSans-4f" transform="translate(931.6875 0)"/>
     <use xlink:href="#DejaVuSans-48" transform="translate(959.46875 0)"/>
     <use xlink:href="#DejaVuSans-50" transform="translate(1021 0)"/>
     <use xlink:href="#DejaVuSans-48" transform="translate(1118.40625 0)"/>
     <use xlink:href="#DejaVuSans-51" transform="translate(1179.9375 0)"/>
     <use xlink:href="#DejaVuSans-57" transform="translate(1243.3125 0)"/>
     <use xlink:href="#DejaVuSans-44" transform="translate(1282.515625 0)"/>
     <use xlink:href="#DejaVuSans-55" transform="translate(1343.796875 0)"/>
     <use xlink:href="#DejaVuSans-4c" transform="translate(1384.90625 0)"/>
     <use xlink:href="#DejaVuSans-57" transform="translate(1412.6875 0)"/>
     <use xlink:href="#DejaVuSans-5c" transform="translate(1451.890625 0)"/>
    </g>
   </g>
  </g>
  <g id="axes_2">
   <g id="patch_5">
    <path d="M 464.130583 245.910125 
L 664.696737 245.910125 
L 664.696737 64.154227 
L 464.130583 64.154227 
z
" style="fill: #ffffff"/>
   </g>
   <g id="matplotlib.axis_3">
    <g id="xtick_9">
     <g id="line2d_19">
      <g>
       <use xlink:href="#me29d2a052c" x="473.247226" y="245.910125" style="stroke: #000000; stroke-width: 0.8"/>
      </g>
     </g>
     <g id="text_14">
      <!-- 0.000 -->
      <g transform="translate(461.795976 258.98825) scale(0.08 -0.08)">
       <use xlink:href="#DejaVuSans-13"/>
       <use xlink:href="#DejaVuSans-11" transform="translate(63.625 0)"/>
       <use xlink:href="#DejaVuSans-13" transform="translate(95.40625 0)"/>
       <use xlink:href="#DejaVuSans-13" transform="translate(159.03125 0)"/>
       <use xlink:href="#DejaVuSans-13" transform="translate(222.65625 0)"/>
      </g>
     </g>
    </g>
    <g id="xtick_10">
     <g id="line2d_20">
      <g>
       <use xlink:href="#me29d2a052c" x="502.819536" y="245.910125" style="stroke: #000000; stroke-width: 0.8"/>
      </g>
     </g>
     <g id="text_15">
      <!-- 0.005 -->
      <g transform="translate(491.368286 258.98825) scale(0.08 -0.08)">
       <use xlink:href="#DejaVuSans-13"/>
       <use xlink:href="#DejaVuSans-11" transform="translate(63.625 0)"/>
       <use xlink:href="#DejaVuSans-13" transform="translate(95.40625 0)"/>
       <use xlink:href="#DejaVuSans-13" transform="translate(159.03125 0)"/>
       <use xlink:href="#DejaVuSans-18" transform="translate(222.65625 0)"/>
      </g>
     </g>
    </g>
    <g id="xtick_11">
     <g id="line2d_21">
      <g>
       <use xlink:href="#me29d2a052c" x="532.391845" y="245.910125" style="stroke: #000000; stroke-width: 0.8"/>
      </g>
     </g>
     <g id="text_16">
      <!-- 0.010 -->
      <g transform="translate(520.940595 258.98825) scale(0.08 -0.08)">
       <use xlink:href="#DejaVuSans-13"/>
       <use xlink:href="#DejaVuSans-11" transform="translate(63.625 0)"/>
       <use xlink:href="#DejaVuSans-13" transform="translate(95.40625 0)"/>
       <use xlink:href="#DejaVuSans-14" transform="translate(159.03125 0)"/>
       <use xlink:href="#DejaVuSans-13" transform="translate(222.65625 0)"/>
      </g>
     </g>
    </g>
    <g id="xtick_12">
     <g id="line2d_22">
      <g>
       <use xlink:href="#me29d2a052c" x="561.964155" y="245.910125" style="stroke: #000000; stroke-width: 0.8"/>
      </g>
     </g>
     <g id="text_17">
      <!-- 0.015 -->
      <g transform="translate(550.512905 258.98825) scale(0.08 -0.08)">
       <use xlink:href="#DejaVuSans-13"/>
       <use xlink:href="#DejaVuSans-11" transform="translate(63.625 0)"/>
       <use xlink:href="#DejaVuSans-13" transform="translate(95.40625 0)"/>
       <use xlink:href="#DejaVuSans-14" transform="translate(159.03125 0)"/>
       <use xlink:href="#DejaVuSans-18" transform="translate(222.65625 0)"/>
      </g>
     </g>
    </g>
    <g id="xtick_13">
     <g id="line2d_23">
      <g>
       <use xlink:href="#me29d2a052c" x="591.536464" y="245.910125" style="stroke: #000000; stroke-width: 0.8"/>
      </g>
     </g>
     <g id="text_18">
      <!-- 0.020 -->
      <g transform="translate(580.085214 258.98825) scale(0.08 -0.08)">
       <use xlink:href="#DejaVuSans-13"/>
       <use xlink:href="#DejaVuSans-11" transform="translate(63.625 0)"/>
       <use xlink:href="#DejaVuSans-13" transform="translate(95.40625 0)"/>
       <use xlink:href="#DejaVuSans-15" transform="translate(159.03125 0)"/>
       <use xlink:href="#DejaVuSans-13" transform="translate(222.65625 0)"/>
      </g>
     </g>
    </g>
    <g id="xtick_14">
     <g id="line2d_24">
      <g>
       <use xlink:href="#me29d2a052c" x="621.108774" y="245.910125" style="stroke: #000000; stroke-width: 0.8"/>
      </g>
     </g>
     <g id="text_19">
      <!-- 0.025 -->
      <g transform="translate(609.657524 258.98825) scale(0.08 -0.08)">
       <use xlink:href="#DejaVuSans-13"/>
       <use xlink:href="#DejaVuSans-11" transform="translate(63.625 0)"/>
       <use xlink:href="#DejaVuSans-13" transform="translate(95.40625 0)"/>
       <use xlink:href="#DejaVuSans-15" transform="translate(159.03125 0)"/>
       <use xlink:href="#DejaVuSans-18" transform="translate(222.65625 0)"/>
      </g>
     </g>
    </g>
    <g id="xtick_15">
     <g id="line2d_25">
      <g>
       <use xlink:href="#me29d2a052c" x="650.681083" y="245.910125" style="stroke: #000000; stroke-width: 0.8"/>
      </g>
     </g>
     <g id="text_20">
      <!-- 0.030 -->
      <g transform="translate(639.229833 258.98825) scale(0.08 -0.08)">
       <defs>
        <path id="DejaVuSans-16" d="M 2597 2516 
Q 3050 2419 3304 2112 
Q 3559 1806 3559 1356 
Q 3559 666 3084 287 
Q 2609 -91 1734 -91 
Q 1441 -91 1130 -33 
Q 819 25 488 141 
L 488 750 
Q 750 597 1062 519 
Q 1375 441 1716 441 
Q 2309 441 2620 675 
Q 2931 909 2931 1356 
Q 2931 1769 2642 2001 
Q 2353 2234 1838 2234 
L 1294 2234 
L 1294 2753 
L 1863 2753 
Q 2328 2753 2575 2939 
Q 2822 3125 2822 3475 
Q 2822 3834 2567 4026 
Q 2313 4219 1838 4219 
Q 1578 4219 1281 4162 
Q 984 4106 628 3988 
L 628 4550 
Q 988 4650 1302 4700 
Q 1616 4750 1894 4750 
Q 2613 4750 3031 4423 
Q 3450 4097 3450 3541 
Q 3450 3153 3228 2886 
Q 3006 2619 2597 2516 
z
" transform="scale(0.015625)"/>
       </defs>
       <use xlink:href="#DejaVuSans-13"/>
       <use xlink:href="#DejaVuSans-11" transform="translate(63.625 0)"/>
       <use xlink:href="#DejaVuSans-13" transform="translate(95.40625 0)"/>
       <use xlink:href="#DejaVuSans-16" transform="translate(159.03125 0)"/>
       <use xlink:href="#DejaVuSans-13" transform="translate(222.65625 0)"/>
      </g>
     </g>
    </g>
    <g id="text_21">
     <!-- Delta multiclass AUC -->
     <g transform="translate(522.59116 270.988875) scale(0.08 -0.08)">
      <use xlink:href="#DejaVuSans-27"/>
      <use xlink:href="#DejaVuSans-48" transform="translate(77 0)"/>
      <use xlink:href="#DejaVuSans-4f" transform="translate(138.53125 0)"/>
      <use xlink:href="#DejaVuSans-57" transform="translate(166.3125 0)"/>
      <use xlink:href="#DejaVuSans-44" transform="translate(205.515625 0)"/>
      <use xlink:href="#DejaVuSans-3" transform="translate(266.796875 0)"/>
      <use xlink:href="#DejaVuSans-50" transform="translate(298.578125 0)"/>
      <use xlink:href="#DejaVuSans-58" transform="translate(395.984375 0)"/>
      <use xlink:href="#DejaVuSans-4f" transform="translate(459.359375 0)"/>
      <use xlink:href="#DejaVuSans-57" transform="translate(487.140625 0)"/>
      <use xlink:href="#DejaVuSans-4c" transform="translate(526.34375 0)"/>
      <use xlink:href="#DejaVuSans-46" transform="translate(554.125 0)"/>
      <use xlink:href="#DejaVuSans-4f" transform="translate(609.109375 0)"/>
      <use xlink:href="#DejaVuSans-44" transform="translate(636.890625 0)"/>
      <use xlink:href="#DejaVuSans-56" transform="translate(698.171875 0)"/>
      <use xlink:href="#DejaVuSans-56" transform="translate(750.265625 0)"/>
      <use xlink:href="#DejaVuSans-3" transform="translate(802.359375 0)"/>
      <use xlink:href="#DejaVuSans-24" transform="translate(834.140625 0)"/>
      <use xlink:href="#DejaVuSans-38" transform="translate(902.546875 0)"/>
      <use xlink:href="#DejaVuSans-26" transform="translate(975.734375 0)"/>
     </g>
    </g>
   </g>
   <g id="matplotlib.axis_4">
    <g id="ytick_4">
     <g id="line2d_26">
      <g>
       <use xlink:href="#mff97824a63" x="464.130583" y="72.415858" style="stroke: #000000; stroke-width: 0.8"/>
      </g>
     </g>
     <g id="text_22">
      <!-- E - B -->
      <g transform="translate(439.77277 71.13932) scale(0.075 -0.075)">
       <use xlink:href="#DejaVuSans-28"/>
       <use xlink:href="#DejaVuSans-3" transform="translate(63.1875 0)"/>
       <use xlink:href="#DejaVuSans-10" transform="translate(94.96875 0)"/>
       <use xlink:href="#DejaVuSans-3" transform="translate(131.046875 0)"/>
       <use xlink:href="#DejaVuSans-25" transform="translate(162.828125 0)"/>
      </g>
      <!-- held-out FARFUM-RoP -->
      <g transform="translate(376.47277 80.141371) scale(0.075 -0.075)">
       <defs>
        <path id="DejaVuSans-4b" d="M 3513 2113 
L 3513 0 
L 2938 0 
L 2938 2094 
Q 2938 2591 2744 2837 
Q 2550 3084 2163 3084 
Q 1697 3084 1428 2787 
Q 1159 2491 1159 1978 
L 1159 0 
L 581 0 
L 581 4863 
L 1159 4863 
L 1159 2956 
Q 1366 3272 1645 3428 
Q 1925 3584 2291 3584 
Q 2894 3584 3203 3211 
Q 3513 2838 3513 2113 
z
" transform="scale(0.015625)"/>
        <path id="DejaVuSans-29" d="M 628 4666 
L 3309 4666 
L 3309 4134 
L 1259 4134 
L 1259 2759 
L 3109 2759 
L 3109 2228 
L 1259 2228 
L 1259 0 
L 628 0 
L 628 4666 
z
" transform="scale(0.015625)"/>
        <path id="DejaVuSans-35" d="M 2841 2188 
Q 3044 2119 3236 1894 
Q 3428 1669 3622 1275 
L 4263 0 
L 3584 0 
L 2988 1197 
Q 2756 1666 2539 1819 
Q 2322 1972 1947 1972 
L 1259 1972 
L 1259 0 
L 628 0 
L 628 4666 
L 2053 4666 
Q 2853 4666 3247 4331 
Q 3641 3997 3641 3322 
Q 3641 2881 3436 2590 
Q 3231 2300 2841 2188 
z
M 1259 4147 
L 1259 2491 
L 2053 2491 
Q 2509 2491 2742 2702 
Q 2975 2913 2975 3322 
Q 2975 3731 2742 3939 
Q 2509 4147 2053 4147 
L 1259 4147 
z
" transform="scale(0.015625)"/>
        <path id="DejaVuSans-30" d="M 628 4666 
L 1569 4666 
L 2759 1491 
L 3956 4666 
L 4897 4666 
L 4897 0 
L 4281 0 
L 4281 4097 
L 3078 897 
L 2444 897 
L 1241 4097 
L 1241 0 
L 628 0 
L 628 4666 
z
" transform="scale(0.015625)"/>
        <path id="DejaVuSans-33" d="M 1259 4147 
L 1259 2394 
L 2053 2394 
Q 2494 2394 2734 2622 
Q 2975 2850 2975 3272 
Q 2975 3691 2734 3919 
Q 2494 4147 2053 4147 
L 1259 4147 
z
M 628 4666 
L 2053 4666 
Q 2838 4666 3239 4311 
Q 3641 3956 3641 3272 
Q 3641 2581 3239 2228 
Q 2838 1875 2053 1875 
L 1259 1875 
L 1259 0 
L 628 0 
L 628 4666 
z
" transform="scale(0.015625)"/>
       </defs>
       <use xlink:href="#DejaVuSans-4b"/>
       <use xlink:href="#DejaVuSans-48" transform="translate(63.375 0)"/>
       <use xlink:href="#DejaVuSans-4f" transform="translate(124.90625 0)"/>
       <use xlink:href="#DejaVuSans-47" transform="translate(152.6875 0)"/>
       <use xlink:href="#DejaVuSans-10" transform="translate(216.171875 0)"/>
       <use xlink:href="#DejaVuSans-52" transform="translate(254.109375 0)"/>
       <use xlink:href="#DejaVuSans-58" transform="translate(315.296875 0)"/>
       <use xlink:href="#DejaVuSans-57" transform="translate(378.671875 0)"/>
       <use xlink:href="#DejaVuSans-3" transform="translate(417.875 0)"/>
       <use xlink:href="#DejaVuSans-29" transform="translate(449.65625 0)"/>
       <use xlink:href="#DejaVuSans-24" transform="translate(498 0)"/>
       <use xlink:href="#DejaVuSans-35" transform="translate(566.40625 0)"/>
       <use xlink:href="#DejaVuSans-29" transform="translate(635.890625 0)"/>
       <use xlink:href="#DejaVuSans-38" transform="translate(693.40625 0)"/>
       <use xlink:href="#DejaVuSans-30" transform="translate(766.59375 0)"/>
       <use xlink:href="#DejaVuSans-10" transform="translate(852.875 0)"/>
       <use xlink:href="#DejaVuSans-35" transform="translate(888.953125 0)"/>
       <use xlink:href="#DejaVuSans-52" transform="translate(953.953125 0)"/>
       <use xlink:href="#DejaVuSans-33" transform="translate(1015.140625 0)"/>
      </g>
     </g>
    </g>
    <g id="ytick_5">
     <g id="line2d_27">
      <g>
       <use xlink:href="#mff97824a63" x="464.130583" y="155.032176" style="stroke: #000000; stroke-width: 0.8"/>
      </g>
     </g>
     <g id="text_23">
      <!-- E - B -->
      <g transform="translate(439.77277 153.755638) scale(0.075 -0.075)">
       <use xlink:href="#DejaVuSans-28"/>
       <use xlink:href="#DejaVuSans-3" transform="translate(63.1875 0)"/>
       <use xlink:href="#DejaVuSans-10" transform="translate(94.96875 0)"/>
       <use xlink:href="#DejaVuSans-3" transform="translate(131.046875 0)"/>
       <use xlink:href="#DejaVuSans-25" transform="translate(162.828125 0)"/>
      </g>
      <!-- held-out Farabi -->
      <g transform="translate(400.66027 162.757688) scale(0.075 -0.075)">
       <use xlink:href="#DejaVuSans-4b"/>
       <use xlink:href="#DejaVuSans-48" transform="translate(63.375 0)"/>
       <use xlink:href="#DejaVuSans-4f" transform="translate(124.90625 0)"/>
       <use xlink:href="#DejaVuSans-47" transform="translate(152.6875 0)"/>
       <use xlink:href="#DejaVuSans-10" transform="translate(216.171875 0)"/>
       <use xlink:href="#DejaVuSans-52" transform="translate(254.109375 0)"/>
       <use xlink:href="#DejaVuSans-58" transform="translate(315.296875 0)"/>
       <use xlink:href="#DejaVuSans-57" transform="translate(378.671875 0)"/>
       <use xlink:href="#DejaVuSans-3" transform="translate(417.875 0)"/>
       <use xlink:href="#DejaVuSans-29" transform="translate(449.65625 0)"/>
       <use xlink:href="#DejaVuSans-44" transform="translate(498 0)"/>
       <use xlink:href="#DejaVuSans-55" transform="translate(559.28125 0)"/>
       <use xlink:href="#DejaVuSans-44" transform="translate(600.390625 0)"/>
       <use xlink:href="#DejaVuSans-45" transform="translate(661.671875 0)"/>
       <use xlink:href="#DejaVuSans-4c" transform="translate(725.15625 0)"/>
      </g>
     </g>
    </g>
    <g id="ytick_6">
     <g id="line2d_28">
      <g>
       <use xlink:href="#mff97824a63" x="464.130583" y="237.648493" style="stroke: #000000; stroke-width: 0.8"/>
      </g>
     </g>
     <g id="text_24">
      <!-- M1 - M0 -->
      <g transform="translate(427.171599 236.371955) scale(0.075 -0.075)">
       <use xlink:href="#DejaVuSans-30"/>
       <use xlink:href="#DejaVuSans-14" transform="translate(86.28125 0)"/>
       <use xlink:href="#DejaVuSans-3" transform="translate(149.90625 0)"/>
       <use xlink:href="#DejaVuSans-10" transform="translate(181.6875 0)"/>
       <use xlink:href="#DejaVuSans-3" transform="translate(217.765625 0)"/>
       <use xlink:href="#DejaVuSans-30" transform="translate(249.546875 0)"/>
       <use xlink:href="#DejaVuSans-13" transform="translate(335.828125 0)"/>
      </g>
      <!-- dual-RGB architecture -->
      <g transform="translate(374.298942 245.374006) scale(0.075 -0.075)">
       <use xlink:href="#DejaVuSans-47"/>
       <use xlink:href="#DejaVuSans-58" transform="translate(63.484375 0)"/>
       <use xlink:href="#DejaVuSans-44" transform="translate(126.859375 0)"/>
       <use xlink:href="#DejaVuSans-4f" transform="translate(188.140625 0)"/>
       <use xlink:href="#DejaVuSans-10" transform="translate(215.921875 0)"/>
       <use xlink:href="#DejaVuSans-35" transform="translate(252 0)"/>
       <use xlink:href="#DejaVuSans-2a" transform="translate(321.484375 0)"/>
       <use xlink:href="#DejaVuSans-25" transform="translate(398.96875 0)"/>
       <use xlink:href="#DejaVuSans-3" transform="translate(467.578125 0)"/>
       <use xlink:href="#DejaVuSans-44" transform="translate(499.359375 0)"/>
       <use xlink:href="#DejaVuSans-55" transform="translate(560.640625 0)"/>
       <use xlink:href="#DejaVuSans-46" transform="translate(599.546875 0)"/>
       <use xlink:href="#DejaVuSans-4b" transform="translate(654.53125 0)"/>
       <use xlink:href="#DejaVuSans-4c" transform="translate(717.90625 0)"/>
       <use xlink:href="#DejaVuSans-57" transform="translate(745.6875 0)"/>
       <use xlink:href="#DejaVuSans-48" transform="translate(784.890625 0)"/>
       <use xlink:href="#DejaVuSans-46" transform="translate(846.421875 0)"/>
       <use xlink:href="#DejaVuSans-57" transform="translate(901.40625 0)"/>
       <use xlink:href="#DejaVuSans-58" transform="translate(940.609375 0)"/>
       <use xlink:href="#DejaVuSans-55" transform="translate(1003.984375 0)"/>
       <use xlink:href="#DejaVuSans-48" transform="translate(1042.890625 0)"/>
      </g>
     </g>
    </g>
   </g>
   <g id="line2d_29">
    <path d="M 560.790261 72.415858 
L 650.133415 72.415858 
" clip-path="url(#p9fda125f3b)" style="fill: none; stroke: #1b1b1b; stroke-width: 1.4; stroke-linecap: square"/>
   </g>
   <g id="line2d_30">
    <g clip-path="url(#p9fda125f3b)">
     <use xlink:href="#mc2520f530e" x="604.796625" y="72.415858" style="fill: #1b1b1b; stroke: #1b1b1b"/>
    </g>
   </g>
   <g id="line2d_31">
    <path d="M 502.72351 155.032176 
L 597.560646 155.032176 
" clip-path="url(#p9fda125f3b)" style="fill: none; stroke: #1b1b1b; stroke-width: 1.4; stroke-linecap: square"/>
   </g>
   <g id="line2d_32">
    <g clip-path="url(#p9fda125f3b)">
     <use xlink:href="#mc2520f530e" x="549.862749" y="155.032176" style="fill: #1b1b1b; stroke: #1b1b1b"/>
    </g>
   </g>
   <g id="line2d_33">
    <path d="M 540.823846 237.648493 
L 655.580093 237.648493 
" clip-path="url(#p9fda125f3b)" style="fill: none; stroke: #1b1b1b; stroke-width: 1.4; stroke-linecap: square"/>
   </g>
   <g id="line2d_34">
    <g clip-path="url(#p9fda125f3b)">
     <use xlink:href="#mc2520f530e" x="597.070587" y="237.648493" style="fill: #1b1b1b; stroke: #1b1b1b"/>
    </g>
   </g>
   <g id="line2d_35">
    <path d="M 473.247226 245.910125 
L 473.247226 64.154227 
" clip-path="url(#p9fda125f3b)" style="fill: none; stroke-dasharray: 3.33,1.44; stroke-dashoffset: 0; stroke: #333333; stroke-width: 0.9"/>
   </g>
   <g id="patch_6">
    <path d="M 464.130583 245.910125 
L 464.130583 64.154227 
" style="fill: none; stroke: #000000; stroke-width: 0.8; stroke-linejoin: miter; stroke-linecap: square"/>
   </g>
   <g id="patch_7">
    <path d="M 464.130583 245.910125 
L 664.696737 245.910125 
" style="fill: none; stroke: #000000; stroke-width: 0.8; stroke-linejoin: miter; stroke-linecap: square"/>
   </g>
   <g id="text_25">
    <!-- B  Vessel benefit replicates -->
    <g transform="translate(503.569441 58.154227) scale(0.09 -0.09)">
     <defs>
      <path id="DejaVuSans-39" d="M 1831 0 
L 50 4666 
L 709 4666 
L 2188 738 
L 3669 4666 
L 4325 4666 
L 2547 0 
L 1831 0 
z
" transform="scale(0.015625)"/>
      <path id="DejaVuSans-13af" d="M 3431 3500 
L 3431 0 
L 2853 0 
L 2853 3053 
L 1275 3053 
L 1275 0 
L 697 0 
L 697 3053 
L 147 3053 
L 147 3500 
L 697 3500 
L 697 3744 
Q 697 4316 967 4589 
Q 1238 4863 1797 4863 
L 2375 4863 
L 2375 4384 
L 1825 4384 
Q 1516 4384 1395 4259 
Q 1275 4134 1275 3809 
L 1275 3500 
L 3431 3500 
z
M 2853 4856 
L 3431 4856 
L 3431 4128 
L 2853 4128 
L 2853 4856 
z
" transform="scale(0.015625)"/>
     </defs>
     <use xlink:href="#DejaVuSans-25"/>
     <use xlink:href="#DejaVuSans-3" transform="translate(68.609375 0)"/>
     <use xlink:href="#DejaVuSans-3" transform="translate(100.390625 0)"/>
     <use xlink:href="#DejaVuSans-39" transform="translate(132.171875 0)"/>
     <use xlink:href="#DejaVuSans-48" transform="translate(192.8125 0)"/>
     <use xlink:href="#DejaVuSans-56" transform="translate(254.34375 0)"/>
     <use xlink:href="#DejaVuSans-56" transform="translate(306.4375 0)"/>
     <use xlink:href="#DejaVuSans-48" transform="translate(358.53125 0)"/>
     <use xlink:href="#DejaVuSans-4f" transform="translate(420.0625 0)"/>
     <use xlink:href="#DejaVuSans-3" transform="translate(447.84375 0)"/>
     <use xlink:href="#DejaVuSans-45" transform="translate(479.625 0)"/>
     <use xlink:href="#DejaVuSans-48" transform="translate(543.109375 0)"/>
     <use xlink:href="#DejaVuSans-51" transform="translate(604.640625 0)"/>
     <use xlink:href="#DejaVuSans-48" transform="translate(668.015625 0)"/>
     <use xlink:href="#DejaVuSans-13af" transform="translate(729.546875 0)"/>
     <use xlink:href="#DejaVuSans-57" transform="translate(792.53125 0)"/>
     <use xlink:href="#DejaVuSans-3" transform="translate(831.734375 0)"/>
     <use xlink:href="#DejaVuSans-55" transform="translate(863.515625 0)"/>
     <use xlink:href="#DejaVuSans-48" transform="translate(902.421875 0)"/>
     <use xlink:href="#DejaVuSans-53" transform="translate(963.953125 0)"/>
     <use xlink:href="#DejaVuSans-4f" transform="translate(1027.4375 0)"/>
     <use xlink:href="#DejaVuSans-4c" transform="translate(1055.21875 0)"/>
     <use xlink:href="#DejaVuSans-46" transform="translate(1083 0)"/>
     <use xlink:href="#DejaVuSans-44" transform="translate(1137.984375 0)"/>
     <use xlink:href="#DejaVuSans-57" transform="translate(1199.265625 0)"/>
     <use xlink:href="#DejaVuSans-48" transform="translate(1238.46875 0)"/>
     <use xlink:href="#DejaVuSans-56" transform="translate(1300 0)"/>
    </g>
   </g>
  </g>
  <g id="axes_3">
   <g id="patch_8">
    <path d="M 759.919237 245.910125 
L 960.485391 245.910125 
L 960.485391 64.154227 
L 759.919237 64.154227 
z
" style="fill: #ffffff"/>
   </g>
   <g id="patch_9">
    <path d="M 769.03588 245.910125 
L 793.168171 245.910125 
L 793.168171 169.775302 
L 769.03588 169.775302 
z
" clip-path="url(#pe09d5f8390)" style="fill: #c8c8c8; stroke: #333333; stroke-width: 0.6; stroke-linejoin: miter"/>
   </g>
   <g id="patch_10">
    <path d="M 836.070022 245.910125 
L 860.202314 245.910125 
L 860.202314 192.495811 
L 836.070022 192.495811 
z
" clip-path="url(#pe09d5f8390)" style="fill: #c8c8c8; stroke: #333333; stroke-width: 0.6; stroke-linejoin: miter"/>
   </g>
   <g id="patch_11">
    <path d="M 903.104165 245.910125 
L 927.236456 245.910125 
L 927.236456 175.973948 
L 903.104165 175.973948 
z
" clip-path="url(#pe09d5f8390)" style="fill: #c8c8c8; stroke: #333333; stroke-width: 0.6; stroke-linejoin: miter"/>
   </g>
   <g id="patch_12">
    <path d="M 793.168171 245.910125 
L 817.300463 245.910125 
L 817.300463 72.809269 
L 793.168171 72.809269 
z
" clip-path="url(#pe09d5f8390)" style="fill: #1b1b1b; stroke: #333333; stroke-width: 0.6; stroke-linejoin: miter"/>
   </g>
   <g id="patch_13">
    <path d="M 860.202314 245.910125 
L 884.334605 245.910125 
L 884.334605 167.526035 
L 860.202314 167.526035 
z
" clip-path="url(#pe09d5f8390)" style="fill: #1b1b1b; stroke: #333333; stroke-width: 0.6; stroke-linejoin: miter"/>
   </g>
   <g id="patch_14">
    <path d="M 927.236456 245.910125 
L 951.368747 245.910125 
L 951.368747 147.712783 
L 927.236456 147.712783 
z
" clip-path="url(#pe09d5f8390)" style="fill: #1b1b1b; stroke: #333333; stroke-width: 0.6; stroke-linejoin: miter"/>
   </g>
   <g id="matplotlib.axis_5">
    <g id="xtick_16">
     <g id="line2d_36">
      <g>
       <use xlink:href="#me29d2a052c" x="793.168171" y="245.910125" style="stroke: #000000; stroke-width: 0.8"/>
      </g>
     </g>
     <g id="text_26">
      <!-- plus -->
      <g transform="translate(784.898796 258.988875) scale(0.08 -0.08)">
       <use xlink:href="#DejaVuSans-53"/>
       <use xlink:href="#DejaVuSans-4f" transform="translate(63.484375 0)"/>
       <use xlink:href="#DejaVuSans-58" transform="translate(91.265625 0)"/>
       <use xlink:href="#DejaVuSans-56" transform="translate(154.640625 0)"/>
      </g>
     </g>
    </g>
    <g id="xtick_17">
     <g id="line2d_37">
      <g>
       <use xlink:href="#me29d2a052c" x="860.202314" y="245.910125" style="stroke: #000000; stroke-width: 0.8"/>
      </g>
     </g>
     <g id="text_27">
      <!-- farfum-rop -->
      <g transform="translate(838.872939 258.988875) scale(0.08 -0.08)">
       <use xlink:href="#DejaVuSans-49"/>
       <use xlink:href="#DejaVuSans-44" transform="translate(35.203125 0)"/>
       <use xlink:href="#DejaVuSans-55" transform="translate(96.484375 0)"/>
       <use xlink:href="#DejaVuSans-49" transform="translate(137.59375 0)"/>
       <use xlink:href="#DejaVuSans-58" transform="translate(172.796875 0)"/>
       <use xlink:href="#DejaVuSans-50" transform="translate(236.171875 0)"/>
       <use xlink:href="#DejaVuSans-10" transform="translate(333.578125 0)"/>
       <use xlink:href="#DejaVuSans-55" transform="translate(369.65625 0)"/>
       <use xlink:href="#DejaVuSans-52" transform="translate(408.5625 0)"/>
       <use xlink:href="#DejaVuSans-53" transform="translate(469.75 0)"/>
      </g>
     </g>
    </g>
    <g id="xtick_18">
     <g id="line2d_38">
      <g>
       <use xlink:href="#me29d2a052c" x="927.236456" y="245.910125" style="stroke: #000000; stroke-width: 0.8"/>
      </g>
     </g>
     <g id="text_28">
      <!-- farabi -->
      <g transform="translate(915.630831 258.988875) scale(0.08 -0.08)">
       <use xlink:href="#DejaVuSans-49"/>
       <use xlink:href="#DejaVuSans-44" transform="translate(35.203125 0)"/>
       <use xlink:href="#DejaVuSans-55" transform="translate(96.484375 0)"/>
       <use xlink:href="#DejaVuSans-44" transform="translate(137.59375 0)"/>
       <use xlink:href="#DejaVuSans-45" transform="translate(198.875 0)"/>
       <use xlink:href="#DejaVuSans-4c" transform="translate(262.359375 0)"/>
      </g>
     </g>
    </g>
   </g>
   <g id="matplotlib.axis_6">
    <g id="ytick_7">
     <g id="line2d_39">
      <g>
       <use xlink:href="#mff97824a63" x="759.919237" y="245.910125" style="stroke: #000000; stroke-width: 0.8"/>
      </g>
     </g>
     <g id="text_29">
      <!-- 0.0 -->
      <g transform="translate(740.196737 248.949187) scale(0.08 -0.08)">
       <use xlink:href="#DejaVuSans-13"/>
       <use xlink:href="#DejaVuSans-11" transform="translate(63.625 0)"/>
       <use xlink:href="#DejaVuSans-13" transform="translate(95.40625 0)"/>
      </g>
     </g>
    </g>
    <g id="ytick_8">
     <g id="line2d_40">
      <g>
       <use xlink:href="#mff97824a63" x="759.919237" y="217.74219" style="stroke: #000000; stroke-width: 0.8"/>
      </g>
     </g>
     <g id="text_30">
      <!-- 0.2 -->
      <g transform="translate(740.196737 220.781252) scale(0.08 -0.08)">
       <use xlink:href="#DejaVuSans-13"/>
       <use xlink:href="#DejaVuSans-11" transform="translate(63.625 0)"/>
       <use xlink:href="#DejaVuSans-15" transform="translate(95.40625 0)"/>
      </g>
     </g>
    </g>
    <g id="ytick_9">
     <g id="line2d_41">
      <g>
       <use xlink:href="#mff97824a63" x="759.919237" y="189.574255" style="stroke: #000000; stroke-width: 0.8"/>
      </g>
     </g>
     <g id="text_31">
      <!-- 0.4 -->
      <g transform="translate(740.196737 192.613317) scale(0.08 -0.08)">
       <use xlink:href="#DejaVuSans-13"/>
       <use xlink:href="#DejaVuSans-11" transform="translate(63.625 0)"/>
       <use xlink:href="#DejaVuSans-17" transform="translate(95.40625 0)"/>
      </g>
     </g>
    </g>
    <g id="ytick_10">
     <g id="line2d_42">
      <g>
       <use xlink:href="#mff97824a63" x="759.919237" y="161.40632" style="stroke: #000000; stroke-width: 0.8"/>
      </g>
     </g>
     <g id="text_32">
      <!-- 0.6 -->
      <g transform="translate(740.196737 164.445382) scale(0.08 -0.08)">
       <use xlink:href="#DejaVuSans-13"/>
       <use xlink:href="#DejaVuSans-11" transform="translate(63.625 0)"/>
       <use xlink:href="#DejaVuSans-19" transform="translate(95.40625 0)"/>
      </g>
     </g>
    </g>
    <g id="ytick_11">
     <g id="line2d_43">
      <g>
       <use xlink:href="#mff97824a63" x="759.919237" y="133.238385" style="stroke: #000000; stroke-width: 0.8"/>
      </g>
     </g>
     <g id="text_33">
      <!-- 0.8 -->
      <g transform="translate(740.196737 136.277447) scale(0.08 -0.08)">
       <use xlink:href="#DejaVuSans-13"/>
       <use xlink:href="#DejaVuSans-11" transform="translate(63.625 0)"/>
       <use xlink:href="#DejaVuSans-1b" transform="translate(95.40625 0)"/>
      </g>
     </g>
    </g>
    <g id="ytick_12">
     <g id="line2d_44">
      <g>
       <use xlink:href="#mff97824a63" x="759.919237" y="105.07045" style="stroke: #000000; stroke-width: 0.8"/>
      </g>
     </g>
     <g id="text_34">
      <!-- 1.0 -->
      <g transform="translate(740.196737 108.109512) scale(0.08 -0.08)">
       <use xlink:href="#DejaVuSans-14"/>
       <use xlink:href="#DejaVuSans-11" transform="translate(63.625 0)"/>
       <use xlink:href="#DejaVuSans-13" transform="translate(95.40625 0)"/>
      </g>
     </g>
    </g>
    <g id="ytick_13">
     <g id="line2d_45">
      <g>
       <use xlink:href="#mff97824a63" x="759.919237" y="76.902514" style="stroke: #000000; stroke-width: 0.8"/>
      </g>
     </g>
     <g id="text_35">
      <!-- 1.2 -->
      <g transform="translate(740.196737 79.941577) scale(0.08 -0.08)">
       <use xlink:href="#DejaVuSans-14"/>
       <use xlink:href="#DejaVuSans-11" transform="translate(63.625 0)"/>
       <use xlink:href="#DejaVuSans-15" transform="translate(95.40625 0)"/>
      </g>
     </g>
    </g>
    <g id="text_36">
     <!-- median |SMD| -->
     <g transform="translate(734.274862 183.063426) rotate(-90) scale(0.08 -0.08)">
      <defs>
       <path id="DejaVuSans-5f" d="M 1344 4891 
L 1344 -1509 
L 813 -1509 
L 813 4891 
L 1344 4891 
z
" transform="scale(0.015625)"/>
       <path id="DejaVuSans-36" d="M 3425 4513 
L 3425 3897 
Q 3066 4069 2747 4153 
Q 2428 4238 2131 4238 
Q 1616 4238 1336 4038 
Q 1056 3838 1056 3469 
Q 1056 3159 1242 3001 
Q 1428 2844 1947 2747 
L 2328 2669 
Q 3034 2534 3370 2195 
Q 3706 1856 3706 1288 
Q 3706 609 3251 259 
Q 2797 -91 1919 -91 
Q 1588 -91 1214 -16 
Q 841 59 441 206 
L 441 856 
Q 825 641 1194 531 
Q 1563 422 1919 422 
Q 2459 422 2753 634 
Q 3047 847 3047 1241 
Q 3047 1584 2836 1778 
Q 2625 1972 2144 2069 
L 1759 2144 
Q 1053 2284 737 2584 
Q 422 2884 422 3419 
Q 422 4038 858 4394 
Q 1294 4750 2059 4750 
Q 2388 4750 2728 4690 
Q 3069 4631 3425 4513 
z
" transform="scale(0.015625)"/>
      </defs>
      <use xlink:href="#DejaVuSans-50"/>
      <use xlink:href="#DejaVuSans-48" transform="translate(97.40625 0)"/>
      <use xlink:href="#DejaVuSans-47" transform="translate(158.9375 0)"/>
      <use xlink:href="#DejaVuSans-4c" transform="translate(222.421875 0)"/>
      <use xlink:href="#DejaVuSans-44" transform="translate(250.203125 0)"/>
      <use xlink:href="#DejaVuSans-51" transform="translate(311.484375 0)"/>
      <use xlink:href="#DejaVuSans-3" transform="translate(374.859375 0)"/>
      <use xlink:href="#DejaVuSans-5f" transform="translate(406.640625 0)"/>
      <use xlink:href="#DejaVuSans-36" transform="translate(440.328125 0)"/>
      <use xlink:href="#DejaVuSans-30" transform="translate(503.8125 0)"/>
      <use xlink:href="#DejaVuSans-27" transform="translate(590.09375 0)"/>
      <use xlink:href="#DejaVuSans-5f" transform="translate(667.09375 0)"/>
     </g>
    </g>
   </g>
   <g id="patch_15">
    <path d="M 759.919237 245.910125 
L 759.919237 64.154227 
" style="fill: none; stroke: #000000; stroke-width: 0.8; stroke-linejoin: miter; stroke-linecap: square"/>
   </g>
   <g id="patch_16">
    <path d="M 759.919237 245.910125 
L 960.485391 245.910125 
" style="fill: none; stroke: #000000; stroke-width: 0.8; stroke-linejoin: miter; stroke-linecap: square"/>
   </g>
   <g id="text_37">
    <!-- 0.54 -->
    <g transform="translate(774.199682 165.550112) scale(0.062 -0.062)">
     <use xlink:href="#DejaVuSans-13"/>
     <use xlink:href="#DejaVuSans-11" transform="translate(63.625 0)"/>
     <use xlink:href="#DejaVuSans-18" transform="translate(95.40625 0)"/>
     <use xlink:href="#DejaVuSans-17" transform="translate(159.03125 0)"/>
    </g>
   </g>
   <g id="text_38">
    <!-- 0.38 -->
    <g transform="translate(841.233824 188.27062) scale(0.062 -0.062)">
     <use xlink:href="#DejaVuSans-13"/>
     <use xlink:href="#DejaVuSans-11" transform="translate(63.625 0)"/>
     <use xlink:href="#DejaVuSans-16" transform="translate(95.40625 0)"/>
     <use xlink:href="#DejaVuSans-1b" transform="translate(159.03125 0)"/>
    </g>
   </g>
   <g id="text_39">
    <!-- 0.50 -->
    <g transform="translate(908.267967 171.748758) scale(0.062 -0.062)">
     <use xlink:href="#DejaVuSans-13"/>
     <use xlink:href="#DejaVuSans-11" transform="translate(63.625 0)"/>
     <use xlink:href="#DejaVuSans-18" transform="translate(95.40625 0)"/>
     <use xlink:href="#DejaVuSans-13" transform="translate(159.03125 0)"/>
    </g>
   </g>
   <g id="text_40">
    <!-- 1.23 -->
    <g transform="translate(798.331973 68.584079) scale(0.062 -0.062)">
     <use xlink:href="#DejaVuSans-14"/>
     <use xlink:href="#DejaVuSans-11" transform="translate(63.625 0)"/>
     <use xlink:href="#DejaVuSans-15" transform="translate(95.40625 0)"/>
     <use xlink:href="#DejaVuSans-16" transform="translate(159.03125 0)"/>
    </g>
   </g>
   <g id="text_41">
    <!-- 0.56 -->
    <g transform="translate(865.366116 163.300845) scale(0.062 -0.062)">
     <use xlink:href="#DejaVuSans-13"/>
     <use xlink:href="#DejaVuSans-11" transform="translate(63.625 0)"/>
     <use xlink:href="#DejaVuSans-18" transform="translate(95.40625 0)"/>
     <use xlink:href="#DejaVuSans-19" transform="translate(159.03125 0)"/>
    </g>
   </g>
   <g id="text_42">
    <!-- 0.70 -->
    <g transform="translate(932.400258 143.487593) scale(0.062 -0.062)">
     <defs>
      <path id="DejaVuSans-1a" d="M 525 4666 
L 3525 4666 
L 3525 4397 
L 1831 0 
L 1172 0 
L 2766 4134 
L 525 4134 
L 525 4666 
z
" transform="scale(0.015625)"/>
     </defs>
     <use xlink:href="#DejaVuSans-13"/>
     <use xlink:href="#DejaVuSans-11" transform="translate(63.625 0)"/>
     <use xlink:href="#DejaVuSans-1a" transform="translate(95.40625 0)"/>
     <use xlink:href="#DejaVuSans-13" transform="translate(159.03125 0)"/>
    </g>
   </g>
   <g id="text_43">
    <!-- C  Representation domain shift -->
    <g transform="translate(790.593642 58.154227) scale(0.09 -0.09)">
     <use xlink:href="#DejaVuSans-26"/>
     <use xlink:href="#DejaVuSans-3" transform="translate(69.828125 0)"/>
     <use xlink:href="#DejaVuSans-3" transform="translate(101.609375 0)"/>
     <use xlink:href="#DejaVuSans-35" transform="translate(133.390625 0)"/>
     <use xlink:href="#DejaVuSans-48" transform="translate(198.390625 0)"/>
     <use xlink:href="#DejaVuSans-53" transform="translate(259.921875 0)"/>
     <use xlink:href="#DejaVuSans-55" transform="translate(323.40625 0)"/>
     <use xlink:href="#DejaVuSans-48" transform="translate(362.3125 0)"/>
     <use xlink:href="#DejaVuSans-56" transform="translate(423.84375 0)"/>
     <use xlink:href="#DejaVuSans-48" transform="translate(475.9375 0)"/>
     <use xlink:href="#DejaVuSans-51" transform="translate(537.46875 0)"/>
     <use xlink:href="#DejaVuSans-57" transform="translate(600.84375 0)"/>
     <use xlink:href="#DejaVuSans-44" transform="translate(640.046875 0)"/>
     <use xlink:href="#DejaVuSans-57" transform="translate(701.328125 0)"/>
     <use xlink:href="#DejaVuSans-4c" transform="translate(740.53125 0)"/>
     <use xlink:href="#DejaVuSans-52" transform="translate(768.3125 0)"/>
     <use xlink:href="#DejaVuSans-51" transform="translate(829.5 0)"/>
     <use xlink:href="#DejaVuSans-3" transform="translate(892.875 0)"/>
     <use xlink:href="#DejaVuSans-47" transform="translate(924.65625 0)"/>
     <use xlink:href="#DejaVuSans-52" transform="translate(988.140625 0)"/>
     <use xlink:href="#DejaVuSans-50" transform="translate(1049.328125 0)"/>
     <use xlink:href="#DejaVuSans-44" transform="translate(1146.734375 0)"/>
     <use xlink:href="#DejaVuSans-4c" transform="translate(1208.015625 0)"/>
     <use xlink:href="#DejaVuSans-51" transform="translate(1235.796875 0)"/>
     <use xlink:href="#DejaVuSans-3" transform="translate(1299.171875 0)"/>
     <use xlink:href="#DejaVuSans-56" transform="translate(1330.953125 0)"/>
     <use xlink:href="#DejaVuSans-4b" transform="translate(1383.046875 0)"/>
     <use xlink:href="#DejaVuSans-4c" transform="translate(1446.421875 0)"/>
     <use xlink:href="#DejaVuSans-49" transform="translate(1474.203125 0)"/>
     <use xlink:href="#DejaVuSans-57" transform="translate(1507.65625 0)"/>
    </g>
   </g>
   <g id="legend_1">
    <g id="patch_17">
     <path d="M 877.089375 74.943211 
L 890.089375 74.943211 
L 890.089375 70.393211 
L 877.089375 70.393211 
z
" style="fill: #c8c8c8; stroke: #333333; stroke-width: 0.6; stroke-linejoin: miter"/>
    </g>
    <g id="text_44">
     <!-- RGB embedding -->
     <g transform="translate(895.289375 74.943211) scale(0.065 -0.065)">
      <use xlink:href="#DejaVuSans-35"/>
      <use xlink:href="#DejaVuSans-2a" transform="translate(69.484375 0)"/>
      <use xlink:href="#DejaVuSans-25" transform="translate(146.96875 0)"/>
      <use xlink:href="#DejaVuSans-3" transform="translate(215.578125 0)"/>
      <use xlink:href="#DejaVuSans-48" transform="translate(247.359375 0)"/>
      <use xlink:href="#DejaVuSans-50" transform="translate(308.890625 0)"/>
      <use xlink:href="#DejaVuSans-45" transform="translate(406.296875 0)"/>
      <use xlink:href="#DejaVuSans-48" transform="translate(469.78125 0)"/>
      <use xlink:href="#DejaVuSans-47" transform="translate(531.3125 0)"/>
      <use xlink:href="#DejaVuSans-47" transform="translate(594.796875 0)"/>
      <use xlink:href="#DejaVuSans-4c" transform="translate(658.28125 0)"/>
      <use xlink:href="#DejaVuSans-51" transform="translate(686.0625 0)"/>
      <use xlink:href="#DejaVuSans-4a" transform="translate(749.4375 0)"/>
     </g>
    </g>
    <g id="patch_18">
     <path d="M 877.089375 84.693719 
L 890.089375 84.693719 
L 890.089375 80.143719 
L 877.089375 80.143719 
z
" style="fill: #1b1b1b; stroke: #333333; stroke-width: 0.6; stroke-linejoin: miter"/>
    </g>
    <g id="text_45">
     <!-- Vessel embedding -->
     <g transform="translate(895.289375 84.693719) scale(0.065 -0.065)">
      <use xlink:href="#DejaVuSans-39"/>
      <use xlink:href="#DejaVuSans-48" transform="translate(60.640625 0)"/>
      <use xlink:href="#DejaVuSans-56" transform="translate(122.171875 0)"/>
      <use xlink:href="#DejaVuSans-56" transform="translate(174.265625 0)"/>
      <use xlink:href="#DejaVuSans-48" transform="translate(226.359375 0)"/>
      <use xlink:href="#DejaVuSans-4f" transform="translate(287.890625 0)"/>
      <use xlink:href="#DejaVuSans-3" transform="translate(315.671875 0)"/>
      <use xlink:href="#DejaVuSans-48" transform="translate(347.453125 0)"/>
      <use xlink:href="#DejaVuSans-50" transform="translate(408.984375 0)"/>
      <use xlink:href="#DejaVuSans-45" transform="translate(506.390625 0)"/>
      <use xlink:href="#DejaVuSans-48" transform="translate(569.875 0)"/>
      <use xlink:href="#DejaVuSans-47" transform="translate(631.40625 0)"/>
      <use xlink:href="#DejaVuSans-47" transform="translate(694.890625 0)"/>
      <use xlink:href="#DejaVuSans-4c" transform="translate(758.375 0)"/>
      <use xlink:href="#DejaVuSans-51" transform="translate(786.15625 0)"/>
      <use xlink:href="#DejaVuSans-4a" transform="translate(849.53125 0)"/>
     </g>
    </g>
   </g>
  </g>
  <g id="text_46">
   <!-- FINAL1  Spatial vessel representations provide reproducible complementary predictive information; five scalar vascular summaries show little incremental value beyond learned image representations -->
   <g transform="translate(10.862969 14.418516) scale(0.095 -0.095)">
    <defs>
     <path id="DejaVuSans-2c" d="M 628 4666 
L 1259 4666 
L 1259 0 
L 628 0 
L 628 4666 
z
" transform="scale(0.015625)"/>
     <path id="DejaVuSans-31" d="M 628 4666 
L 1478 4666 
L 3547 763 
L 3547 4666 
L 4159 4666 
L 4159 0 
L 3309 0 
L 1241 3903 
L 1241 0 
L 628 0 
L 628 4666 
z
" transform="scale(0.015625)"/>
     <path id="DejaVuSans-2f" d="M 628 4666 
L 1259 4666 
L 1259 531 
L 3531 531 
L 3531 0 
L 628 0 
L 628 4666 
z
" transform="scale(0.015625)"/>
     <path id="DejaVuSans-1e" d="M 750 3309 
L 1409 3309 
L 1409 2516 
L 750 2516 
L 750 3309 
z
M 750 794 
L 1409 794 
L 1409 256 
L 897 -744 
L 494 -744 
L 750 256 
L 750 794 
z
" transform="scale(0.015625)"/>
     <path id="DejaVuSans-5a" d="M 269 3500 
L 844 3500 
L 1563 769 
L 2278 3500 
L 2956 3500 
L 3675 769 
L 4391 3500 
L 4966 3500 
L 4050 0 
L 3372 0 
L 2619 2869 
L 1863 0 
L 1184 0 
L 269 3500 
z
" transform="scale(0.015625)"/>
    </defs>
    <use xlink:href="#DejaVuSans-29"/>
    <use xlink:href="#DejaVuSans-2c" transform="translate(57.515625 0)"/>
    <use xlink:href="#DejaVuSans-31" transform="translate(87.015625 0)"/>
    <use xlink:href="#DejaVuSans-24" transform="translate(161.828125 0)"/>
    <use xlink:href="#DejaVuSans-2f" transform="translate(230.234375 0)"/>
    <use xlink:href="#DejaVuSans-14" transform="translate(285.953125 0)"/>
    <use xlink:href="#DejaVuSans-3" transform="translate(349.578125 0)"/>
    <use xlink:href="#DejaVuSans-3" transform="translate(381.359375 0)"/>
    <use xlink:href="#DejaVuSans-36" transform="translate(413.140625 0)"/>
    <use xlink:href="#DejaVuSans-53" transform="translate(476.625 0)"/>
    <use xlink:href="#DejaVuSans-44" transform="translate(540.109375 0)"/>
    <use xlink:href="#DejaVuSans-57" transform="translate(601.390625 0)"/>
    <use xlink:href="#DejaVuSans-4c" transform="translate(640.59375 0)"/>
    <use xlink:href="#DejaVuSans-44" transform="translate(668.375 0)"/>
    <use xlink:href="#DejaVuSans-4f" transform="translate(729.65625 0)"/>
    <use xlink:href="#DejaVuSans-3" transform="translate(757.4375 0)"/>
    <use xlink:href="#DejaVuSans-59" transform="translate(789.21875 0)"/>
    <use xlink:href="#DejaVuSans-48" transform="translate(848.40625 0)"/>
    <use xlink:href="#DejaVuSans-56" transform="translate(909.9375 0)"/>
    <use xlink:href="#DejaVuSans-56" transform="translate(962.03125 0)"/>
    <use xlink:href="#DejaVuSans-48" transform="translate(1014.125 0)"/>
    <use xlink:href="#DejaVuSans-4f" transform="translate(1075.65625 0)"/>
    <use xlink:href="#DejaVuSans-3" transform="translate(1103.4375 0)"/>
    <use xlink:href="#DejaVuSans-55" transform="translate(1135.21875 0)"/>
    <use xlink:href="#DejaVuSans-48" transform="translate(1174.125 0)"/>
    <use xlink:href="#DejaVuSans-53" transform="translate(1235.65625 0)"/>
    <use xlink:href="#DejaVuSans-55" transform="translate(1299.140625 0)"/>
    <use xlink:href="#DejaVuSans-48" transform="translate(1338.046875 0)"/>
    <use xlink:href="#DejaVuSans-56" transform="translate(1399.578125 0)"/>
    <use xlink:href="#DejaVuSans-48" transform="translate(1451.671875 0)"/>
    <use xlink:href="#DejaVuSans-51" transform="translate(1513.203125 0)"/>
    <use xlink:href="#DejaVuSans-57" transform="translate(1576.578125 0)"/>
    <use xlink:href="#DejaVuSans-44" transform="translate(1615.78125 0)"/>
    <use xlink:href="#DejaVuSans-57" transform="translate(1677.0625 0)"/>
    <use xlink:href="#DejaVuSans-4c" transform="translate(1716.265625 0)"/>
    <use xlink:href="#DejaVuSans-52" transform="translate(1744.046875 0)"/>
    <use xlink:href="#DejaVuSans-51" transform="translate(1805.234375 0)"/>
    <use xlink:href="#DejaVuSans-56" transform="translate(1868.609375 0)"/>
    <use xlink:href="#DejaVuSans-3" transform="translate(1920.703125 0)"/>
    <use xlink:href="#DejaVuSans-53" transform="translate(1952.484375 0)"/>
    <use xlink:href="#DejaVuSans-55" transform="translate(2015.96875 0)"/>
    <use xlink:href="#DejaVuSans-52" transform="translate(2054.875 0)"/>
    <use xlink:href="#DejaVuSans-59" transform="translate(2116.0625 0)"/>
    <use xlink:href="#DejaVuSans-4c" transform="translate(2175.25 0)"/>
    <use xlink:href="#DejaVuSans-47" transform="translate(2203.03125 0)"/>
    <use xlink:href="#DejaVuSans-48" transform="translate(2266.515625 0)"/>
    <use xlink:href="#DejaVuSans-3" transform="translate(2328.046875 0)"/>
    <use xlink:href="#DejaVuSans-55" transform="translate(2359.828125 0)"/>
    <use xlink:href="#DejaVuSans-48" transform="translate(2398.734375 0)"/>
    <use xlink:href="#DejaVuSans-53" transform="translate(2460.265625 0)"/>
    <use xlink:href="#DejaVuSans-55" transform="translate(2523.75 0)"/>
    <use xlink:href="#DejaVuSans-52" transform="translate(2562.65625 0)"/>
    <use xlink:href="#DejaVuSans-47" transform="translate(2623.84375 0)"/>
    <use xlink:href="#DejaVuSans-58" transform="translate(2687.328125 0)"/>
    <use xlink:href="#DejaVuSans-46" transform="translate(2750.703125 0)"/>
    <use xlink:href="#DejaVuSans-4c" transform="translate(2805.6875 0)"/>
    <use xlink:href="#DejaVuSans-45" transform="translate(2833.46875 0)"/>
    <use xlink:href="#DejaVuSans-4f" transform="translate(2896.953125 0)"/>
    <use xlink:href="#DejaVuSans-48" transform="translate(2924.734375 0)"/>
    <use xlink:href="#DejaVuSans-3" transform="translate(2986.265625 0)"/>
    <use xlink:href="#DejaVuSans-46" transform="translate(3018.046875 0)"/>
    <use xlink:href="#DejaVuSans-52" transform="translate(3073.03125 0)"/>
    <use xlink:href="#DejaVuSans-50" transform="translate(3134.21875 0)"/>
    <use xlink:href="#DejaVuSans-53" transform="translate(3231.625 0)"/>
    <use xlink:href="#DejaVuSans-4f" transform="translate(3295.109375 0)"/>
    <use xlink:href="#DejaVuSans-48" transform="translate(3322.890625 0)"/>
    <use xlink:href="#DejaVuSans-50" transform="translate(3384.421875 0)"/>
    <use xlink:href="#DejaVuSans-48" transform="translate(3481.828125 0)"/>
    <use xlink:href="#DejaVuSans-51" transform="translate(3543.359375 0)"/>
    <use xlink:href="#DejaVuSans-57" transform="translate(3606.734375 0)"/>
    <use xlink:href="#DejaVuSans-44" transform="translate(3645.9375 0)"/>
    <use xlink:href="#DejaVuSans-55" transform="translate(3707.21875 0)"/>
    <use xlink:href="#DejaVuSans-5c" transform="translate(3748.328125 0)"/>
    <use xlink:href="#DejaVuSans-3" transform="translate(3807.515625 0)"/>
    <use xlink:href="#DejaVuSans-53" transform="translate(3839.296875 0)"/>
    <use xlink:href="#DejaVuSans-55" transform="translate(3902.78125 0)"/>
    <use xlink:href="#DejaVuSans-48" transform="translate(3941.6875 0)"/>
    <use xlink:href="#DejaVuSans-47" transform="translate(4003.21875 0)"/>
    <use xlink:href="#DejaVuSans-4c" transform="translate(4066.703125 0)"/>
    <use xlink:href="#DejaVuSans-46" transform="translate(4094.484375 0)"/>
    <use xlink:href="#DejaVuSans-57" transform="translate(4149.46875 0)"/>
    <use xlink:href="#DejaVuSans-4c" transform="translate(4188.671875 0)"/>
    <use xlink:href="#DejaVuSans-59" transform="translate(4216.453125 0)"/>
    <use xlink:href="#DejaVuSans-48" transform="translate(4275.640625 0)"/>
    <use xlink:href="#DejaVuSans-3" transform="translate(4337.171875 0)"/>
    <use xlink:href="#DejaVuSans-4c" transform="translate(4368.953125 0)"/>
    <use xlink:href="#DejaVuSans-51" transform="translate(4396.734375 0)"/>
    <use xlink:href="#DejaVuSans-49" transform="translate(4460.109375 0)"/>
    <use xlink:href="#DejaVuSans-52" transform="translate(4495.3125 0)"/>
    <use xlink:href="#DejaVuSans-55" transform="translate(4556.5 0)"/>
    <use xlink:href="#DejaVuSans-50" transform="translate(4595.859375 0)"/>
    <use xlink:href="#DejaVuSans-44" transform="translate(4693.265625 0)"/>
    <use xlink:href="#DejaVuSans-57" transform="translate(4754.546875 0)"/>
    <use xlink:href="#DejaVuSans-4c" transform="translate(4793.75 0)"/>
    <use xlink:href="#DejaVuSans-52" transform="translate(4821.53125 0)"/>
    <use xlink:href="#DejaVuSans-51" transform="translate(4882.71875 0)"/>
    <use xlink:href="#DejaVuSans-1e" transform="translate(4946.09375 0)"/>
    <use xlink:href="#DejaVuSans-3" transform="translate(4979.78125 0)"/>
    <use xlink:href="#DejaVuSans-13af" transform="translate(5011.5625 0)"/>
    <use xlink:href="#DejaVuSans-59" transform="translate(5074.546875 0)"/>
    <use xlink:href="#DejaVuSans-48" transform="translate(5133.734375 0)"/>
    <use xlink:href="#DejaVuSans-3" transform="translate(5195.265625 0)"/>
    <use xlink:href="#DejaVuSans-56" transform="translate(5227.046875 0)"/>
    <use xlink:href="#DejaVuSans-46" transform="translate(5279.140625 0)"/>
    <use xlink:href="#DejaVuSans-44" transform="translate(5334.125 0)"/>
    <use xlink:href="#DejaVuSans-4f" transform="translate(5395.40625 0)"/>
    <use xlink:href="#DejaVuSans-44" transform="translate(5423.1875 0)"/>
    <use xlink:href="#DejaVuSans-55" transform="translate(5484.46875 0)"/>
    <use xlink:href="#DejaVuSans-3" transform="translate(5525.578125 0)"/>
    <use xlink:href="#DejaVuSans-59" transform="translate(5557.359375 0)"/>
    <use xlink:href="#DejaVuSans-44" transform="translate(5616.546875 0)"/>
    <use xlink:href="#DejaVuSans-56" transform="translate(5677.828125 0)"/>
    <use xlink:href="#DejaVuSans-46" transform="translate(5729.921875 0)"/>
    <use xlink:href="#DejaVuSans-58" transform="translate(5784.90625 0)"/>
    <use xlink:href="#DejaVuSans-4f" transform="translate(5848.28125 0)"/>
    <use xlink:href="#DejaVuSans-44" transform="translate(5876.0625 0)"/>
    <use xlink:href="#DejaVuSans-55" transform="translate(5937.34375 0)"/>
    <use xlink:href="#DejaVuSans-3" transform="translate(5978.453125 0)"/>
    <use xlink:href="#DejaVuSans-56" transform="translate(6010.234375 0)"/>
    <use xlink:href="#DejaVuSans-58" transform="translate(6062.328125 0)"/>
    <use xlink:href="#DejaVuSans-50" transform="translate(6125.703125 0)"/>
    <use xlink:href="#DejaVuSans-50" transform="translate(6223.109375 0)"/>
    <use xlink:href="#DejaVuSans-44" transform="translate(6320.515625 0)"/>
    <use xlink:href="#DejaVuSans-55" transform="translate(6381.796875 0)"/>
    <use xlink:href="#DejaVuSans-4c" transform="translate(6422.90625 0)"/>
    <use xlink:href="#DejaVuSans-48" transform="translate(6450.6875 0)"/>
    <use xlink:href="#DejaVuSans-56" transform="translate(6512.21875 0)"/>
    <use xlink:href="#DejaVuSans-3" transform="translate(6564.3125 0)"/>
    <use xlink:href="#DejaVuSans-56" transform="translate(6596.09375 0)"/>
    <use xlink:href="#DejaVuSans-4b" transform="translate(6648.1875 0)"/>
    <use xlink:href="#DejaVuSans-52" transform="translate(6711.5625 0)"/>
    <use xlink:href="#DejaVuSans-5a" transform="translate(6772.75 0)"/>
    <use xlink:href="#DejaVuSans-3" transform="translate(6854.53125 0)"/>
    <use xlink:href="#DejaVuSans-4f" transform="translate(6886.3125 0)"/>
    <use xlink:href="#DejaVuSans-4c" transform="translate(6914.09375 0)"/>
    <use xlink:href="#DejaVuSans-57" transform="translate(6941.875 0)"/>
    <use xlink:href="#DejaVuSans-57" transform="translate(6981.078125 0)"/>
    <use xlink:href="#DejaVuSans-4f" transform="translate(7020.28125 0)"/>
    <use xlink:href="#DejaVuSans-48" transform="translate(7048.0625 0)"/>
    <use xlink:href="#DejaVuSans-3" transform="translate(7109.59375 0)"/>
    <use xlink:href="#DejaVuSans-4c" transform="translate(7141.375 0)"/>
    <use xlink:href="#DejaVuSans-51" transform="translate(7169.15625 0)"/>
    <use xlink:href="#DejaVuSans-46" transform="translate(7232.53125 0)"/>
    <use xlink:href="#DejaVuSans-55" transform="translate(7287.515625 0)"/>
    <use xlink:href="#DejaVuSans-48" transform="translate(7326.421875 0)"/>
    <use xlink:href="#DejaVuSans-50" transform="translate(7387.953125 0)"/>
    <use xlink:href="#DejaVuSans-48" transform="translate(7485.359375 0)"/>
    <use xlink:href="#DejaVuSans-51" transform="translate(7546.890625 0)"/>
    <use xlink:href="#DejaVuSans-57" transform="translate(7610.265625 0)"/>
    <use xlink:href="#DejaVuSans-44" transform="translate(7649.46875 0)"/>
    <use xlink:href="#DejaVuSans-4f" transform="translate(7710.75 0)"/>
    <use xlink:href="#DejaVuSans-3" transform="translate(7738.53125 0)"/>
    <use xlink:href="#DejaVuSans-59" transform="translate(7770.3125 0)"/>
    <use xlink:href="#DejaVuSans-44" transform="translate(7829.5 0)"/>
    <use xlink:href="#DejaVuSans-4f" transform="translate(7890.78125 0)"/>
    <use xlink:href="#DejaVuSans-58" transform="translate(7918.5625 0)"/>
    <use xlink:href="#DejaVuSans-48" transform="translate(7981.9375 0)"/>
    <use xlink:href="#DejaVuSans-3" transform="translate(8043.46875 0)"/>
    <use xlink:href="#DejaVuSans-45" transform="translate(8075.25 0)"/>
    <use xlink:href="#DejaVuSans-48" transform="translate(8138.734375 0)"/>
    <use xlink:href="#DejaVuSans-5c" transform="translate(8200.265625 0)"/>
    <use xlink:href="#DejaVuSans-52" transform="translate(8259.453125 0)"/>
    <use xlink:href="#DejaVuSans-51" transform="translate(8320.640625 0)"/>
    <use xlink:href="#DejaVuSans-47" transform="translate(8384.015625 0)"/>
    <use xlink:href="#DejaVuSans-3" transform="translate(8447.5 0)"/>
    <use xlink:href="#DejaVuSans-4f" transform="translate(8479.28125 0)"/>
    <use xlink:href="#DejaVuSans-48" transform="translate(8507.0625 0)"/>
    <use xlink:href="#DejaVuSans-44" transform="translate(8568.59375 0)"/>
    <use xlink:href="#DejaVuSans-55" transform="translate(8629.875 0)"/>
    <use xlink:href="#DejaVuSans-51" transform="translate(8669.234375 0)"/>
    <use xlink:href="#DejaVuSans-48" transform="translate(8732.609375 0)"/>
    <use xlink:href="#DejaVuSans-47" transform="translate(8794.140625 0)"/>
    <use xlink:href="#DejaVuSans-3" transform="translate(8857.625 0)"/>
    <use xlink:href="#DejaVuSans-4c" transform="translate(8889.40625 0)"/>
    <use xlink:href="#DejaVuSans-50" transform="translate(8917.1875 0)"/>
    <use xlink:href="#DejaVuSans-44" transform="translate(9014.59375 0)"/>
    <use xlink:href="#DejaVuSans-4a" transform="translate(9075.875 0)"/>
    <use xlink:href="#DejaVuSans-48" transform="translate(9139.359375 0)"/>
    <use xlink:href="#DejaVuSans-3" transform="translate(9200.890625 0)"/>
    <use xlink:href="#DejaVuSans-55" transform="translate(9232.671875 0)"/>
    <use xlink:href="#DejaVuSans-48" transform="translate(9271.578125 0)"/>
    <use xlink:href="#DejaVuSans-53" transform="translate(9333.109375 0)"/>
    <use xlink:href="#DejaVuSans-55" transform="translate(9396.59375 0)"/>
    <use xlink:href="#DejaVuSans-48" transform="translate(9435.5 0)"/>
    <use xlink:href="#DejaVuSans-56" transform="translate(9497.03125 0)"/>
    <use xlink:href="#DejaVuSans-48" transform="translate(9549.125 0)"/>
    <use xlink:href="#DejaVuSans-51" transform="translate(9610.65625 0)"/>
    <use xlink:href="#DejaVuSans-57" transform="translate(9674.03125 0)"/>
    <use xlink:href="#DejaVuSans-44" transform="translate(9713.234375 0)"/>
    <use xlink:href="#DejaVuSans-57" transform="translate(9774.515625 0)"/>
    <use xlink:href="#DejaVuSans-4c" transform="translate(9813.71875 0)"/>
    <use xlink:href="#DejaVuSans-52" transform="translate(9841.5 0)"/>
    <use xlink:href="#DejaVuSans-51" transform="translate(9902.6875 0)"/>
    <use xlink:href="#DejaVuSans-56" transform="translate(9966.0625 0)"/>
   </g>
  </g>
 </g>
 <defs>
  <clipPath id="p456dbad65a">
   <rect x="118.200391" y="64.154227" width="250.707692" height="181.755898"/>
  </clipPath>
  <clipPath id="p9fda125f3b">
   <rect x="464.130583" y="64.154227" width="200.566154" height="181.755898"/>
  </clipPath>
  <clipPath id="pe09d5f8390">
   <rect x="759.919237" y="64.154227" width="200.566154" height="181.755898"/>
  </clipPath>
 </defs>
</svg>
